<svg xmlns="http://www.w3.org/2000/svg" width="2452.751" height="1751.804" viewBox="0 0 2452.751 1751.804">
  <g id="About_2_" data-name="About (2)" transform="translate(-1 -1)">
    <path id="Path_1" data-name="Path 1" d="M1713.815,1752.8H1Q1,876.9,1,1H2453.751V1752.8H1713.815M289.267,1358.675a23.6,23.6,0,0,1,8.508,9.284v49.583c-6.62-1.3-10.447-1.435-13.523-2.76-27.642-11.9-41.833-33.62-54.427-55.163-20.22-34.591-51.6-59.24-92.067-76.094-16.884-7.03-36.109-10.22-54.27-15.155,12.156,21.6,26.655,38.706,40.886,55.967,23.924,29.018,32.453,61.676,26.72,95.734-6.643,39.461,12.147,68.875,56.064,84.041,23.608,8.147,45.879,18.941,68.489,31.389-14.617,35.84,8.7,68.162,11.05,107.981,9.439-9.714,14.337-14.755,22.6-19.27l55.079,29.977c-39.112,1.555-72.648,3.194-106.212,4.13-26.315.732-33.873,6.483-37.568,33.141,2.982,22.958,13.878,30.883,42.935,30.9q212.286.1,424.572.109,753.269-.028,1506.546-.113c31.47,0,43.085-9.091,43.967-36.618-11.61-26.164-19.562-30.936-52.407-30.909-18.992.015-37.983.325-60.2-.11-4.289-.419-8.578-.838-13.132-1.28,16.562-36.962,35.151-72.432,48.183-109.25,12.679-35.833,41.295-53.162,81.795-64.126,28.232-7.642,54.883-19.659,81.384-31.083,11.816-5.1,22.212-16.114,12.675-26.134-6.609-6.943-22.376-10.828-34.028-10.794-11.912.038-24.893,5.063-35.471,10.484-22.065,11.307-42.857,24.321-64.648,36.909.489-2.567.681-5.584,1.658-8.416,13.611-39.325,42.715-70.416,74.953-100.578,24.212-22.645,44.579-48.137,66.046-72.726,9.012-10.322,13.123-22.94.521-32.439-13.392-10.1-29.255-7.226-43.816.917-41.331,23.121-63.771,57.7-80.831,94.53-12.743,27.523-21.01,56.458-31.635,85.763-1.964-14.324-2.864-27.976-5.869-41.307-6.431-28.52-10.437-58.142-42.555-80.874-9.528-33.87,8.509-57.881,42.706-75.437,22.783,20.01,50.905,21.577,72.665.816a171.5,171.5,0,0,0,34.786-47.639c10.514-21.3,1.265-39.449-20.892-54.627-4.207-2.881-6.244-7.936-8.687-15.468v-36.739c-7.582,2.692-12.456,3.243-15.086,5.55-14.369,12.591-28.579,25.344-42.108,38.555-21.463,20.957-47.26,36.35-79.922,40.937.069-6.905-.128-13.822.247-20.716,3.106-57.3-8.057-111.413-48.242-160.26,32.027-11.3,64.265-22.219,95.867-34.277,5.339-2.039,7.934-8.989,13.726-15.332,19.608-14.872,40.929-28.523,58.135-45.1,9.313-8.967,17.781-23.683,15.826-34.466-4.677-25.779-15.041-50.942-24.4-76.026-22.463-60.211-52.937-118.334-53.12-183.577-.064-22.849-4.293-51.61-44.2-58.429-1.421,1.472-4.495,4.651-6.344,6.562-4.367-3.243-8.614-6.392-15.479-11.492-.745,9.208-1.169,14.5-1.626,20.131-5.1-1.71-8.916-2.994-12.729-4.274-1.53,5.172-5.362,10.753-4.147,15.438,3.385,13.082,8.857,25.8,11.734,40.231-.557.547-1.114,1.095-3.987.03q-9.729-3.268-19.467-6.531l-5.879,6.49c18.444,18.62,37.129,37.086,55.144,55.99a29.921,29.921,0,0,1,7.249,14.335c6.39,31.506,12.14,63.1,18.224,94.654,4.992,25.9,10.149,51.776,15.319,78.095-14.835,2.284-26.491,4.078-41.756,5.4-3.019.049-6.185-.378-9.035.219-52.394,10.964-104.683,22.283-157.191,32.854-7.719,1.556-17.9,1.948-24.454-.951-34.425-15.219-68.051-31.672-102.614-50.946-2.028-16.038,3.156-28.5,17.749-41.024,13.09-11.24,19.307-27.95,32.036-42.47,19.887-2.741,34.06-16.193,36.4-38.166,1.315-12.365-2.763-24.537-23.276-29.664-.959-.245-1.918-.491-1.48-3.481,8.687-36.422-14.365-77.676-53.079-95.005-38.454-17.208-98.992-11.594-129.434,11.828-29.766,22.906-36.01,52.29-38.591,83.652-34.53.959-69.289.257-103.513,3.462-22.838,2.137-46.6,7.132-66.854,15.8-20.22,8.646-32.128,25.261-30.561,46.125,2.311,30.762,23.541,51.535,55.039,63.465,67.014,25.382,137.176,33.073,209.849,20.542,1.836,4.61,3.672,9.216,2.58,15.46-30.556,12.972-61.113,25.945-95.4,38.721-77.113-.506-151.792,13.973-228.161,22.9-29.447-16.34-58.889-32.676-90.56-51.267-16.585-5.9-33.165-11.794-50.74-19.715-1.206-1.774-2.411-3.553-.288-5.527,5.769-.393,11.569-1.3,17.306-1.087,27.519,1.042,52.449-11.2,55.632-32.831,7.45-50.625,16.968-102.009.279-152.267-9.309-28.021-20.07-58.538-51.069-75.807-46.191-25.73-117.618-21.467-157.7,11.723-39.025,32.307-52.928,74.792-63.21,117.76-18.562-40.9-33.886-83.071-56.468-122.392-31.9-55.537-86.691-94.122-152.386-121.713-43.177-18.133-89.363-26.8-137.77-31.967-59.9-6.4-115.448,3.1-169.263,21.444-94.895,32.352-158.888,92.26-209.873,163.662-19.643-10.579-40.4-6.226-45.607,11.685a144.094,144.094,0,0,0-5.175,47.616c1.023,18.926,5.982,37.705,8.931,59.112-3.21,8.449-6.421,16.9-12.743,24.842-17.716-5.856-35.024-13.025-53.349-16.922-7.229-1.54-16.726,4.206-25.191,6.633,3.7,7.57,4.8,18.122,11.582,22.139,19.176,11.36,40.675,20.044,60.87,33.16-1.393,14.1-2.785,28.2-7.609,42.595-13.157-4.361-26.027-9.5-39.532-12.916-26.181-6.633-49.4,3.5-61.35,23.925l-56-70.3c-9.468,58.67-6.423,110.069,19.2,160.041,18.01,35.127,52.249,59.75,79.619,88.851,27.145,28.859,49.953,58.961,28.667,97.946-51.151-13.3-83-4.908-97.194,30.309-7.539,18.7-8.822,40.329-6.767,60.2,4,38.68,20.379,74.372,49.985,107.151a44.312,44.312,0,0,0,4.155,2s-.218.008.939,2.6c19.85,3.239,40.834,4.436,53.7,20.134,0,0-.25.189.066,2.884,7.573,4.187,15.146,8.374,22.8,12.3,0,0-.311.064.576,2.216M1335.356,391.1c5.216-14.709,10.428-29.419,15.594-43.988H1147.7c47.4,37.219,89.656,70.4,130.841,102.742,15.009-11.847,28.707-22.656,44.1-30.849,3.955-1.835,10.784-3.228,11.318-5.591,1.43-6.331.164-13.078,1.393-22.313m570.5,453.88c25.551,6.845,50.686,15.234,76.78,20.048,20.906,3.859,40.925-.891,49.8-19.84,7.454-15.925-3.024-43.248-22.13-52.867a281.954,281.954,0,0,0-55.536-20.935c-30.781-7.974-51.649-2.662-62.374,14.32-10.487,16.612-14.63,42.259,13.46,59.274m-868.753-424.8c-38.445,5.4-56.144,39.974-33.009,67.108,15.383,18.047,37.221,33.643,59.729,45.853,21.933,11.893,53.061.419,60.3-18.035,14.922-38.053-33.982-93.831-87.016-94.926M364.834,528.708c3.36-26.726-13.147-44.456-38.462-38.264-11.1,2.718-24.036,12.746-27.436,21.709-5.807,15.309.824,28.674,23.872,33.345,18.943,3.836,31.483-.193,42.027-16.789M493.87,400.46c-7.418-4.814-14.155-12.474-22.4-13.818-14.6-2.386-30.314-1.884-37.678,13.2-6.516,13.342-7.323,27.908,6.553,35.768,10,5.663,29.023,7.962,39.419,3.84,15.5-6.15,25.669-19.621,14.109-38.985M1626.585,508.827c18.06-9.59,18.307-25.193,11.907-37.951-3.855-7.687-19.1-14.86-30.086-15.88-14.675-1.359-28.666,5.259-34.567,18.7-9.638,21.962,15.064,40.14,52.746,35.127m279.093-43.674c23.381-6,25.56-21.475,22.139-37.471-2.544-11.9-13.282-18.636-28.922-19.077-20.933-.589-38.143,10.737-38.933,26.134-1.037,20.255,13.031,30.5,45.716,30.415m36.549,114.354c.306-4.859.612-9.722.7-11.194l30.182-12.735c-9.436-3.572-18.873-7.147-29.862-11.3-.667-4.538-1.649-11.16-2.626-17.786l-7.436-1.45c-2.357,7.26-4.714,14.517-6.139,18.9-11.053,4.723-20.056,8.566-29.054,12.41,9.437,3.564,18.878,7.124,23.226,8.767,15.365,3.53-6.143,24.718,21.006,14.388M269.038,558.229c-9.934-3.085-19.868-6.165-27.776-8.619-3.1-8.619-5.869-16.34-8.642-24.057l-6.384,1.37c-1.071,8.314-2.142,16.627-3.179,24.68l-30.075,1.412c.954,21.063,22.972,7.188,31.251,14.177q.7,10.941,1.408,21.886,2.972.646,5.945,1.287c3.6-7.543,7.2-15.087,9.438-19.791,10.9-3.609,19.46-6.445,28.014-12.346M352.788,444.04c2.515-7.517,5.031-15.03,7.483-22.551q13.646-2.09,27.291-4.176.112-2.582.223-5.161c-9.447-1.839-18.893-3.677-27.421-5.339-3.221-8.268-6.3-16.163-9.373-24.057q-3.052.866-6.1,1.737c-.978,7.842-1.955,15.683-2.866,22.992l-30.446,3.572q-.008,3.313-.016,6.626l28.469,3.534c3.562,9.144,6.526,16.748,12.758,22.823m1431.074,2.518c5.161-.751,10.327-1.506,20.453-2.979-14.858-4.561-26.88-5.482-32.968-10.93-5.559-4.976-4.7-14.856-6.659-22.577q-5.364-2.345-10.734-4.685c8.436,26.405-5.732,35.731-29.374,39.476,9.779,1.121,19.563,2.239,28.634,3.277,1.658,9.238,3.06,17.035,4.458,24.827q4.056.079,8.1.155c1-5.41.868-11.206,3.339-16.106C1771.141,452.988,1776.262,450.024,1783.862,446.559Z" transform="translate(0 0)" fill="none"/>
    <path id="Path_2" data-name="Path 2" d="M79.922,298.826c48.216-72.9,112.21-132.812,207.1-165.164,53.814-18.345,109.36-27.84,169.263-21.444,48.406,5.165,94.593,13.833,137.77,31.967C659.753,171.775,714.545,210.36,746.445,265.9c22.582,39.321,37.906,81.493,57.82,124.491-1.457,26.417-5.865,50.7-6.623,75.056-.758,24.5,13.926,40.635,42.007,48,17.183,4.512,35.5,6.071,52.2,9.5a55.225,55.225,0,0,1-9.669,2.73c-3.353,2.092-5.376,4.206-8.948,6.626-15.813,7.317-30.077,14.332-46.009,21.528-12.995,5.112-24.359,9.978-35.636,14.981-25.619,11.375-45.008,26.8-51.859,51.414-10.323,37.06-21.467,73.965-32.772,111.787-3.764,9.926-7.029,18.994-11.574,27.247-28.054-39.219-54.116-77.974-81.927-115.853-11.163-15.2-23.413-31.468-40.071-41.911-25-15.676-54.317-26.647-82.553-40.537-3.257-1.669-5.755-2.42-9.436-4.161-7.847-1.378-14.511-1.771-21.486-3.526-13.9-9.435-27.5-17.507-41.176-27.051-.932-7.207-1.781-12.938-1.663-19.851,31.657-16.385,42.181-41.092,48.982-68.351,23.048-2.4,29.826-15.808,33.288-30.381,3.015-12.685,2.672-25.48-13.945-33.394,12.4-16.57,23.262-32.027,7.555-49.692-8.824-9.926-17.5-20.063-27.638-29.033-8.1-7.162-17.822-17.382-27.656-18.069-27.757-1.933-44.36-16.914-63.644-29.682-39.81-26.36-75.711-18.79-96.292,19.379-5.769,10.692-11.108,22.309-20.284,30.819-15.831,14.686-17.151,27.417-4.49,45.011,7.326,10.179,9.637,22.826,12.478,34.277-7.911,3.409-17.05,5.769-19.764,10.594-10.683,18.994,6.3,44.7,32.607,51.387,4.814,23.91,13.753,43.829,39.861,56.284,6.226,2.967,9.126,10.692,13.369,17.941-.662,8.476-1.142,15.234-3.316,22.218-13.867,4.353-26.039,8.48-39.705,12.629-9.29,3.485-17.092,6.943-26.1,10.53-2.343,1.016-3.48,1.91-6.2,3.111-38.627,17.718-79.132,31.393-102.914,62.608-3.44-7.755-6.287-14.226-8.987-20.735-28.649-69.079-28.342-68.94,15.074-132.1a169.233,169.233,0,0,0,19.865-39.82c1.809-5.165-1.754-15.015-6.7-17.488-5.354-2.673-17-1.31-22.63,2.046-8.22,4.9-16.035,12.361-19.583,20.119-9.885,21.614-17.485,43.946-25.987,65.995-10.47-27.24-18.063-55.276-20.437-83.615C80.535,379.035,81.055,338.884,79.922,298.826Z" transform="translate(281.555 303.148)" fill="#1e2e47"/>
    <path id="Path_3" data-name="Path 3" d="M371.057,292.523c23.119-32.484,63.624-46.159,102.43-62.208,5.833,26.122,9.715,50.9,14.036,75.637,7.8,44.592,17.832,89.383,3.828,134.085-16,51.078-10.021,101.291-.3,152.52,8.875,46.774,15.982,94.492,14.959,141.662-1.475,68.018-11,135.916-18.887,204.017-20.284-2.228-38.769-4.606-57.564-8.155-5.394-1.355-10.482-1.54-17.366-1.627-8.139-.151-14.479-.4-22.253-.714a125.214,125.214,0,0,1,.534,16.031c-.85,18.417-1.151,35.093-3.209,51.773a70.493,70.493,0,0,1-13.452-.8c-20.112-24.5-33.657-49.417-37.37-78.45-1.51-11.817-13.522-22.713-20.762-34.021-.005.008.013,0-.107-1.189-5.058-5.58-10-9.967-15.6-15.921a177.807,177.807,0,0,1-1.653-28.648,17.269,17.269,0,0,0,4.875-4.206c5.388-8.344,15.871-18.3-1.965-21.09-21.759-3.413-44.36-3.153-69.215-4.64,2.215,9.2,3.958,16.431,4.556,24.37-20.645-4.372-40.146-9.446-59.647-14.52l-2.373,4.848c21.908,6.732,43.816,13.463,65.633,21.641-9.626,18.726-19.162,36.01-28.7,53.29-22.875-9.6-45.146-20.395-68.754-28.542-43.917-15.166-62.707-44.58-56.064-84.041,5.733-34.058-2.8-66.716-26.72-95.734C45.714,670.626,31.215,653.516,19.06,631.92c18.161,4.935,37.386,8.125,54.27,15.155,40.463,16.854,71.847,41.5,92.067,76.094,12.594,21.543,26.785,43.263,54.427,55.163,3.076,1.325,6.9,1.457,13.523,2.76,0-17.544,0-33.564.854-51.826,2.112-3.035,2.846-4.077,3.254-7.124,2.116-79.477,25.328-154.174,48.979-228.641,13.763-43.338,5.629-81.987-27.7-116.85-12.829-13.418-27.516-25.628-41.357-38.385,26.992,5.21,42.388,22.366,55.537,39.559,13.734,17.956,22.8,38.347,33.781,57.447q24.493-54.321,50.727-112.417c4.958-10.975,9.294-20.652,13.631-30.332M325.394,794.868c11.617,10,12.561,10.009,26.729-1.2a26.231,26.231,0,0,1,.044-3.7c0-.7,0-1.4,0-5.637v-137.6l-8.226-.249c-3.464,19.466-6.552,38.989-10.5,58.387-4.12,20.259-9.066,40.4-15.8,62.706-.59,5.637-1.18,11.273-1.88,18.534a3.27,3.27,0,0,1-.859,2.794,49.246,49.246,0,0,0,7.806,2.926,4.005,4.005,0,0,1,2.685,3.035M392.3,509.562q6.885-19.634,13.766-39.265C382.425,493.146,350.2,597.3,359.423,613.983c5.162-18.375,9.357-34.715,14.4-50.874,5.3-17,11.416-33.82,18.481-53.547m55.865,263.05c1.215,2.968,2.43,5.931,4.691,11.443,13.78-44.275-14.009-117.027-46.616-129.313,10.058,17.714,23,35.195,29.913,54.178,7.071,19.4,8.231,40.273,12.013,63.692M148.43,784.35q-8.152-11.949-16.305-23.895-2.72,1.331-5.439,2.658c7.785,12.761,15.57,25.522,24.614,40.344,2.667-4.432,4.1-5.689,3.789-6.49-1.363-3.526-3.226-6.917-6.658-12.617m239.854-145.66a35.157,35.157,0,0,0,1.763,7.068c.16.355,3.576-.279,5.486-.457A17.647,17.647,0,0,0,388.284,638.689Z" transform="translate(64.429 636.45)" fill="#1b3550"/>
    <path id="Path_4" data-name="Path 4" d="M492.637,267.181c30.557-12.972,61.113-25.945,94.511-39.019,36.6,26.307,56.614,26.243,83.59-.34,2.371-2.337,4.906-4.557,7.363-6.83,33.9,16.023,67.531,32.476,101.956,47.7,6.559,2.9,16.735,2.507,24.454.951,52.508-10.571,104.8-21.89,157.191-32.854,2.85-.6,6.016-.17,10.5,1.431,17.014,28.614,32.562,55.582,48.109,82.55-3.864,4.682-6.458,11.632-11.8,13.671-31.6,12.059-63.84,22.977-99.092,35.225-21.5,3.791-39.778,6.63-53.865,8.819,0,56.277,0,109.994-1.315,163.069-16.242-15.634-31.169-30.626-47.4-46.932-24.952,19.874-42.587,33.922-60.583,48.254-19.892-15.638-37.212-29.256-54.892-43.157-14.091,12.463-25.829,23.049-37.851,33.416-10.163,8.767-19.453,9.642-30.547-.332C610.89,521.947,596.68,512.72,583.4,502.783q-2.727-3.217-5.449-6.437-21.513,24.216-43.021,48.435-5.81.714-11.611,1.423c-14.237-16.238-28.474-32.476-43.2-49.277-23.016,18.02-40.6,31.785-58.857,45.4-.676-.155-2.064-.223-2.384-1.823a60.129,60.129,0,0,1,2.5-15.219c14.785-20.991,28.679-41.145,42.574-61.3l-6.445-3.069c-13.269,18.888-26.537,37.773-40.861,57.719-17.539,22.792-34.032,44.528-51.348,67.354-2.937-4.549-4.344-6.724-5.8-10.311-10.761-36.629-21.472-71.85-32.2-108.442,2.174-7.736,2.827-14.864,6.824-20.323,17.247-23.555,34.9-46.936,53.472-69.793,30.141-37.1,52.293-79.707,102.358-103.447,1.8-.853,1.832-4.266,2.686-6.486m95.306,60.86c49.8-8.412,114.69-42.863,117.188-71.061-17.379,13.475-32.881,29.392-52.654,39.74-20.645,10.805-45.447,16.163-68.207,24.333C583.32,321.392,584.663,326.1,587.943,328.041Z" transform="translate(1164.07 610.575)" fill="#3d0c24"/>
    <path id="Path_5" data-name="Path 5" d="M221.981,409.123c10.8-36.969,21.942-73.874,32.265-110.934,6.851-24.612,26.24-40.039,51.859-51.414,11.277-5,22.641-9.869,36.513-13.807,7.034,6.044,11.273,11.262,16.046,16.133,47.781,48.767,162.247,69.423,210.781-22.845,29.447,16.34,58.889,32.676,88.573,51.7,1.69,8.1,2.466,13.716,4.691,18.907,24.792,57.885,41.578,117.027,41.569,180.088-5.152,36.237-22.134,62.2-71.194,66.369-1.516,28.229-1.366,56.114-3.344,84.249-25.14-.03-48.151-.306-72.486-1.227-33.941-10.8-66.558-20.946-99.969-32.189-6.353-2.881-11.912-4.666-17.64-7.453a21.857,21.857,0,0,0-4.179-4.421q-1.13,1.07-2.252,2.145a45.953,45.953,0,0,1,7.335,4.429c6.349,2.888,11.9,4.682,17.758,7.747,7.477,5.648,14.305,10.473,21.892,14.279,11.825,5.927,24.158,11.16,34.224,16.876-23.167-.038-44.277-.264-66.38-1.046a64.365,64.365,0,0,1-8.875-3.152c-34.183-23.332-67.49-45.664-100.791-67.992q-1.994,1.841-4,3.685c15.077,11.889,29.849,24.061,45.319,35.591,14.908,11.115,30.534,21.565,43.784,32.635-46.374-.015-90.683-.363-134.833-2.209,1.5-20.757,2.841-40.008,4.325-60.913,4.458-17.182-5.65-23.223-22.317-24.876-4.508-.449-9.085-.506-13.566-1.076-33.822-4.3-41.085-11.137-41.089-39.023a303.2,303.2,0,0,1,2.334-41.6c28.14-6.26,54.563-8.993,80.137,1.4-11.177,11.919-21.6,22.611-32.018,33.3q2.466,1.8,4.933,3.606c13.547-11.859,27.1-23.717,42.487-35.655,17.1.77,32.352,1.62,49.79,2.552,61.241-2.469,120.3-5.018,179.617-6.124,7.331,15.238,14.4,29.033,20.261,43.908-23.44,7.619-45.661,14.158-67.882,20.693q.754,2.186,1.507,4.368c20.851-4.851,42.053-8.9,62.383-14.951,8.2-2.443,14.5-9.265,21.7-13.965.046.132-.265.042,1.22.015a60.012,60.012,0,0,0,7.244-4.617c.046.408-.936.351.475-.015a27.068,27.068,0,0,0,4.828-6.63c.046.113-.247.14.863-.332A18.963,18.963,0,0,0,599.2,481.5c-.073.219-.576.034,1.1-.042,3.75-3.847,5.828-7.623,8.011-11.2.105.193-.388.31.827-.245a28.557,28.557,0,0,0,4.307-8.094c5.088-6.029,9.7-10.8,15.639-16.929-1.42-4.859-3.563-12.746-6.029-20.565-6.043-19.145-14.557-23.249-34.252-11.6-16.1,9.525-28.2,23.664-44.113,35.583-61.392,2.1-120.747,4.372-179.818,5.282-3.289-8.559-5.106-16.9-10.715-22.751-30.433-31.755-86.161-44.067-132.175-21.818M482.3,342.17q27.987-12.295,55.97-24.593-1.576-1.875-3.147-3.745l-91.752,32.835c.256,1.106.516,2.209.772,3.315,11.537-2.45,23.071-4.9,38.157-7.811m87.057-55.816q-.808-3.03-1.612-6.06-6.255,6.654-12.5,13.3,2.309,1.342,4.622,2.688a108.907,108.907,0,0,0,9.491-9.933M414.9,573.264c1.48-.219,2.955-.442,4.435-.661C417.863,572.317,416.388,572.03,414.9,573.264Z" transform="translate(767.039 625.184)" fill="#112d20"/>
    <path id="Path_6" data-name="Path 6" d="M49.2,575.253c3.121-23.71,10.678-29.46,36.993-30.192,33.565-.936,67.1-2.575,106.212-4.13-21.282-11.583-38.181-20.78-56.645-31.819-8.663-55.446-3.586-76,20.912-87.247v56.383c22.039-18.858,28.928-34.073,38.152-76.136,5.254,1.333,9.287,2.341,13.32,3.349,0,0-.018.008-.092,1.461,4.405,12.746,8.857,24.042,13.369,35.323,8.968,22.426,15.584,45.792,27.856,66.908,7.3,12.557,23.519,21.577,37.287,33.137,40.135,1.374,78.716,2.326,117.284,2.016,21.75-.174,43.474-2.416,67.124-3.364,12.405.272,22.9.185,35.211.676,49.247,1.352,96.671,2.371,144.1,2.726,12.529.091,25.08-1.88,39.742-2.782,38.646.042,75.218.744,111.653-.744,7.888-.325,20.622-7.676,21.952-13.274,4.166-17.544,3.951-35.8,6.55-54.782,3.417-9.042,5.714-17.084,10.154-25.352,31.219-.147,60.3-.068,89.7,1.306,15.772,18.67,24.441,18.039,38.34-1.506,11.3-.174,20.622-.17,30.045,1.586.091,20.7.082,39.65-2.051,58.719-5.157.166-8.231-.034-11.227.295-19.229,2.107-39.1,2.62-57.318,7.411-6.573,1.729-9.162,13.807-13.57,21.165,7.518,2.643,14.977,7.434,22.559,7.573,40.993.759,82.019.363,123.035.363h117.4c9.368-25,6.705-30.521-20.558-34.519-17.736-2.6-36.22-1.7-54.408-4.138.041-20.735.114-39.706,2.384-58.727,56.327.2,110.452.449,164.814,2.05,2.987,10.16,5.741,18.968,8.062,29.343,2.517,16.786,5.951,31.959,8.258,47.25,1.64,10.847,6.431,16.461,21.234,16.14,37.166-.812,74.368-.5,113.037.317,50.891,1.11,100.3,1.265,151.016,1.631,3.069.042,4.828-.128,8.418.072,10-.6,18.165-1.571,28.369-2.265,15.685.042,29.337-.189,44.885-.091,8.245.513,14.6.7,22.71,1.31,5.385.253,9.016.079,14.315.532,25.235.861,48.818,1.586,72.372,1.189,24.071-.408,48.119-1.914,74.29-2.714,28.035-.045,53.96-.317,81.2.415,14.082.653,26.857.3,39.628-.045,18.992-.177,37.983-.487,56.975-.5,32.845-.026,40.8,4.746,50.133,32.367q-1005.3,2.243-2006.047,1.567c-3.042,0-6.083-.162-9.124-.249m1182.29-70.71c6.778,2.937,13.716,8.223,20.28,7.928,3.919-.177,9.633-9.008,9.966-14.151.2-3.039-10.231-9.948-12.894-9.053-6.76,2.276-11.834,7.966-17.352,15.275m-70.746-23.97c13.821-.476,22.3-6.422,18.43-17.616-1.334-3.843-14.4-8.857-19.065-7.26-16.361,5.6-14.721,14.992.635,24.876m-292.234-9.96c1.384,6.645,1.854,13.61,4.96,19.655.585,1.14,12.912.042,17.457-2.7,3.471-2.1,5.285-11.9,4.289-12.3C887.621,472.176,879.149,470.556,868.516,470.613Z" transform="translate(171.971 1113.26)" fill="#112d20"/>
    <path id="Path_7" data-name="Path 7" d="M49.142,449.4c3.328-1.389,6.369-1.227,9.411-1.227q1001.884-.045,2005.855-.185c1.585,24.688-10.03,33.775-41.5,33.779q-753.275.074-1506.546.113-212.286.011-424.572-.109C62.733,481.756,51.837,473.831,49.142,449.4Z" transform="translate(171.747 1240.589)"/>
    <path id="Path_8" data-name="Path 8" d="M321.561,393.783c-16.888,37.456-33.777,74.909-50.106,111.122-10.978-19.1-20.047-39.491-33.781-57.447-13.149-17.193-28.545-34.349-55.537-39.559,13.84,12.757,28.528,24.967,41.357,38.385,33.324,34.862,41.459,73.512,27.7,116.85C227.538,637.6,204.327,712.3,200.975,791.159a39.328,39.328,0,0,1-12.267-1.453s.311-.064.29-1.3a228.834,228.834,0,0,0-23.09-13.761s.25-.189.467-1.4c-7.293-10.45-14.8-19.689-23.133-30.249-17.466-33.152-10.252-65.289-2.322-97.354,7.72-31.212,15.9-62.344,23.885-93.51,17.829-39.053-4.979-69.155-32.125-98.014-27.371-29.1-61.61-53.724-79.619-88.851C27.44,315.3,24.4,263.9,33.863,205.226c21,26.368,38.5,48.333,57.837,71.824,9.389,9.5,16.941,17.48,24.7,26.7,3.029,3.643,5.848,6.041,8.632,8.959-.035.521.865,1.253.865,1.253a3.869,3.869,0,0,1,2.425.9c16.635,11.776,31.655,23.072,47.669,33.3,31.912,20.391,71.872,21.626,108.884,30.011.121-.132-.1.14.34,1.261,3.159,1.431,5.877,1.74,9.98,2.7C304.907,386.455,313.234,390.117,321.561,393.783Z" transform="translate(99.672 566.817)" fill="#52616d"/>
    <path id="Path_9" data-name="Path 9" d="M548.442,374.067a171.1,171.1,0,0,0,79.182-44.433c13.529-13.21,27.739-25.964,42.108-38.555,2.631-2.307,7.5-2.858,15.086-5.55,0,13.769,0,25.254-1.558,39.291-12.629,43.64-35.083,79.171-75.19,106.211-2.014,1.359-2.393,4.376-3.535,6.622-31.785,19.089-49.823,43.1-40.719,79.326,3.38,36.943,7.189,71.526,9.51,106.682-7.185,23.113-29,35.1-49.571,49.058-25.08,8.755-48.479,17.454-73.126,24.963-1.909-23.042-4.2-44.977-2.59-66.712.859-11.538,8.491-22.728,14.26-34.885,10.83-18.2,24-34.881,29.314-53.132,9.249-31.751,13.652-64.469,21.495-97a89.235,89.235,0,0,0,10.574-7.419l-5-3.251a113.369,113.369,0,0,1-8.989,11.077c-6.463,14.03-14.269,27.074-16.146,40.673-5.152,37.249-10.154,74.18-38.358,106.505-3.572-4.693-7.477-9.722-7.532-14.777-.525-47.744-.224-95.492-.653-143.236-.059-6.577-2.823-13.135-3.955-20.724a6.872,6.872,0,0,1,2.786-3.5c21.485-19.681,46.118-30.543,77.652-30.66,8.331-.034,16.639-4.274,24.957-6.58m3.741,43.61q2.959-3.885,5.915-7.774-1.987-1.331-3.978-2.654-7.372,5.771-14.744,11.538,1.617,1.6,3.229,3.2A62.691,62.691,0,0,0,552.183,417.677Z" transform="translate(1577.005 789.693)" fill="#039bf7"/>
    <path id="Path_10" data-name="Path 10" d="M567.965,502.813c-3.809-34.583-7.619-69.166-10.2-104.731,31.744,19,35.75,48.62,42.181,77.14,3.005,13.331,3.905,26.983,5.869,41.307,10.624-29.305,18.891-58.24,31.635-85.763,17.06-36.833,39.5-71.409,80.831-94.53,14.561-8.144,30.424-11.017,43.816-.917,12.6,9.5,8.491,22.117-.521,32.439-21.467,24.589-41.833,50.081-66.046,72.726-32.238,30.162-61.342,61.253-74.953,100.578-.978,2.832-1.169,5.848-1.658,8.416,21.792-12.587,42.583-25.6,64.648-36.909,10.578-5.422,23.559-10.447,35.471-10.484,11.652-.034,27.419,3.851,34.028,10.794,9.537,10.02-.859,21.037-12.675,26.134-26.5,11.424-53.152,23.442-81.384,31.083-40.5,10.964-69.116,28.293-81.795,64.126-13.031,36.818-31.621,72.288-48.183,109.25,4.554.442,8.843.861,14.739,1.586-11.158.653-23.934,1-37.869-1.05,9.784-14.075,5.536-26.432,2.416-39.291-10.524-43.387-37.979-80.421-63.351-119.579.036-3.051.046-4.795.059-6.539,23.4-8.7,46.8-17.4,71.861-24.65,7.715,41.832,13.771,82.222,19.681,121.652,11.834-27.414,21.5-58.146,38.1-86.061C593.31,558.18,586.866,530.823,567.965,502.813Z" transform="translate(1583.855 909.968)" fill="#192fb2"/>
    <path id="Path_11" data-name="Path 11" d="M332.394,425.406c-17.809-2.881-36.124-4.44-53.307-8.952-28.081-7.37-42.766-23.51-42.007-48,.758-24.359,5.166-48.639,8.258-74.474,7.294-45.649,21.2-88.134,60.223-120.44,40.084-33.19,111.511-37.452,157.7-11.723,31,17.269,41.761,47.786,51.069,75.807,16.69,50.259,7.171,101.642-.279,152.267-3.183,21.629-28.113,33.873-55.632,32.831-5.737-.215-11.538.695-20.558.547-5.317-7.592-7.376-14.649-7.6-21.731,10.884-2.409,20.828-3.519,28.821-7.381,30.278-14.641,35.193-39.82,38.385-66.878,20.28-31.166,18.745-45.471-4.7-52.528-4.549,8.819-9.1,17.631-15.055,25.194-3.019-25.144-1.548-49.757-25.843-67.165l-5.8,16.755c-25.025,3.349-46.785,3.051-54.769-24.933-9.044,26.953-19.152,30.49-52.96,22.849-2.078-7.883-4.166-15.8-6.906-26.2-8.824,15.562-10.916,33.488-36.252,33.658-1.832.011-5.152,7.339-5.125,11.255.169,21.89,1.156,43.776,1.85,67.437-.014,7.347-.694,12.991.078,18.492,5.805,41.5,14.529,51.452,49.439,58.395A101.838,101.838,0,0,1,332.394,425.406Z" transform="translate(842.117 400.142)" fill="#402906"/>
    <path id="Path_12" data-name="Path 12" d="M271.942,522.652c-8.949-2.371-17.275-6.033-27.691-11.575a25.729,25.729,0,0,0-9.717-2.594s.223-.272,1.075-1.382c-1.184-2.847-2.841-5.229-5.312-6.218-34.977-13.992-69.888-28.116-105.205-41.5C109.484,453.463,93,449.125,76.917,444.07l-1.26.06s-.9-.732.4-2.552c-2.5-4.179-6.3-6.543-10.109-8.906-7.551-7.977-15.1-15.955-22.929-25.209,8.554-22.2,31.769-32.333,57.95-25.7,13.505,3.421,26.375,8.555,42.632,13.346,42.109,30.358,81.119,60.282,119.211,89.508-1.246-3.96-2.871-10.492-5.361-16.793-7.984-20.191-17.792-39.978-24.138-60.505-11.419-36.931-45.031-50.481-84.813-58.614-20.584-9.737-42.083-18.42-61.259-29.781-6.778-4.017-7.886-14.569-11.582-22.139,8.464-2.428,17.962-8.174,25.191-6.633,18.326,3.9,35.634,11.066,55.758,18.243,18.131,15.668,33.854,30.011,49.576,44.358-8.633-25.677-21.507-49.217-34.581-72.681-.316-.566-2.854-.287-4.356-.4-3.254-18.843-8.213-37.622-9.236-56.549a144.094,144.094,0,0,1,5.175-47.616c5.21-17.911,25.964-22.264,46.991-10.934,2.518,40.809,2,80.961,5.344,120.89,2.375,28.338,9.967,56.375,20.437,83.615,8.5-22.049,16.1-44.38,25.987-65.995,3.548-7.758,11.363-15.219,19.583-20.119,5.629-3.356,17.277-4.719,22.63-2.046,4.947,2.473,8.509,12.323,6.7,17.488A169.233,169.233,0,0,1,291,338.222c-43.416,63.156-43.723,63.016-15.074,132.1,2.7,6.509,5.547,12.98,8.987,20.735C281.236,502,276.9,511.677,271.942,522.652Z" transform="translate(149.913 436.653)" fill="#01233a"/>
    <path id="Path_13" data-name="Path 13" d="M589.885,325.471c-72.555,15.068-142.716,7.377-209.731-18.005-31.5-11.93-52.727-32.7-55.039-63.465-1.567-20.863,10.341-37.479,30.561-46.125,20.252-8.665,44.017-13.66,66.854-15.8,34.224-3.205,68.983-2.5,105.455-2.582a4.581,4.581,0,0,1,2.576,3.073c.283.717.968,2.122-.786,2.254-19.613,3.825-23.4,15.272-20.586,27.568,3.759,16.412,8.052,33.949,35.864,36.422,17.366,21.033,33.79,41.1,49.9,62.619-.352,5.4-.4,9.333-1.621,13.407C591.406,325.143,590.643,325.305,589.885,325.471Z" transform="translate(1155.793 495.369)" fill="#1e2e47"/>
    <path id="Path_14" data-name="Path 14" d="M561.024,543.719c-16.512-26.137-32.059-53.105-47.269-81.485,12-3.205,23.655-5,38.49-7.283-5.17-26.319-10.327-52.2-15.319-78.095C530.842,345.3,525.091,313.708,518.7,282.2a29.921,29.921,0,0,0-7.249-14.335c-18.014-18.9-36.7-37.369-55.144-55.99l5.879-6.49a211.68,211.68,0,0,1,21.495,8.189,29.633,29.633,0,0,0,6.755,3.3q-1.514-3.279-3.024-6.558c-4.649-12.859-10.121-25.575-13.506-38.657-1.215-4.685,2.617-10.265,4.147-15.438,3.814,1.28,7.628,2.564,12.729,4.274.457-5.629.882-10.922,1.626-20.131,6.865,5.1,11.113,8.249,15.479,11.492,1.85-1.91,4.924-5.089,6.344-6.562,39.906,6.818,44.136,35.58,44.2,58.429.183,65.243,30.657,123.366,53.12,183.577,9.354,25.084,19.718,50.247,24.4,76.026,1.955,10.783-6.513,25.5-15.826,34.466C602.917,514.365,581.6,528.017,561.024,543.719Z" transform="translate(1624.318 386.791)" fill="#fca482"/>
    <path id="Path_15" data-name="Path 15" d="M359.1,456.41c-.5-61.778-17.288-120.92-42.08-178.8-2.224-5.191-3-10.809-4.111-17.763,75.551-12.753,150.23-27.232,229.207-26.628,1.009,2.318.982,5.731-.822,6.584-50.064,23.74-72.217,66.346-102.358,103.447-18.567,22.857-36.225,46.238-53.472,69.793-4,5.459-4.65,12.587-7.609,21.433a50.723,50.723,0,0,1-7.779,12.07C365.607,450.286,362.355,453.348,359.1,456.41Z" transform="translate(1112.73 644.444)" fill="#1e2e47"/>
    <path id="Path_16" data-name="Path 16" d="M548.408,441.474c-7.948,4.055-16.256,8.295-24.587,8.329-31.534.117-56.167,10.979-77.607,28.878-1.9-16.3-2.581-31.378-3.261-46.453V268.518c14.086-2.19,32.365-5.029,52.321-7.906,44.953,46.985,56.116,101.1,53.01,158.4C547.91,425.9,548.106,432.821,548.408,441.474Z" transform="translate(1576.67 720.537)" fill="#1e2e47"/>
    <path id="Path_17" data-name="Path 17" d="M424.847,319.549c.7-1.435,1.462-1.6,5.508-1.884,30.25-1.016,58.8,4.761,81.717-11.111q-41.046-1.891-81.9-3.772c-16.42-20.063-32.845-40.125-50.183-62.869-2.53-11.749-2.718-21.2-6.093-29.792-4.7-11.968-4.4-21.5,11.725-28.048,4.252.4,7.08.781,10.354,2.514,1.791,7.86,3.124,14.373,4.842,21.92,1.722,2.877,3.06,4.723,5.12,7.781,14.324,11.708,28.127,12.18,43.19,1.412,2.366-1.121,3.188-2.145,4.723-4.41,2.9-5.108,3.919-9.556,6.44-13.316,2.905-4.327,7.135-8.042,10.788-12.025,4.179,4.228,8.916,8.174,12.383,12.769,3.407,4.519,5.527,9.7,9.1,15.7,14.516,11.7,28.337,11.987,43.464,1.08,2.316-2.443,3.526-4.315,5.915-7.17,8.715-10.7,3.485-30.343,30.347-24.854,2.156,4.644,4.9,8.525,4.3,12.017-2.7,15.725-6.344,31.34-9.651,46.993-9.249,14.3-15.466,31.008-28.556,42.247-14.593,12.523-19.777,24.986-17.421,42.651-2.128,3.9-4.663,6.116-7.034,8.453-26.976,26.583-46.99,26.647-82.124-.479a69.677,69.677,0,0,1-6.947-15.808M472.8,245.92H438.084c7.331,18.56,18.247,28.508,38.915,26.507,17.379-1.688,27.24-10.7,30.757-26.507Z" transform="translate(1320.89 502.56)" fill="#fca583"/>
    <path id="Path_18" data-name="Path 18" d="M141.543,301.51c-6.252,31.2-14.437,62.333-22.156,93.544-7.93,32.065-15.144,64.2.652,97.659-10.655,3.889-20.46,6.161-30.265,8.431,0,0,.218-.008.029-.834a5.572,5.572,0,0,0-3.509-3.288c-30.062-30.66-46.44-66.353-50.441-105.033-2.055-19.874-.772-41.5,6.767-60.2C56.818,296.568,88.663,288.179,141.543,301.51Z" transform="translate(121.205 817.405)" fill="#1e2e47"/>
    <path id="Path_19" data-name="Path 19" d="M433.629,280.3c-26.866-16-22.723-41.647-12.236-58.259,10.724-16.982,31.593-22.294,62.374-14.32A281.954,281.954,0,0,1,539.3,228.657c19.106,9.62,29.584,36.943,22.13,52.867-8.875,18.949-28.894,23.7-49.8,19.84C485.539,296.551,460.4,288.162,433.629,280.3Z" transform="translate(1471.007 563.66)" fill="#1e2e47"/>
    <path id="Path_20" data-name="Path 20" d="M263.552,112.027c51.142,1.1,100.047,56.877,85.125,94.93-7.235,18.454-38.363,29.928-60.3,18.035-22.509-12.21-44.346-27.806-59.729-45.853C205.518,152.005,223.217,117.43,263.552,112.027Z" transform="translate(775.445 308.149)" fill="#1e2e47"/>
    <path id="Path_21" data-name="Path 21" d="M425.3,161.95c-13.693,10.809-27.391,21.618-42.4,33.465-41.185-32.34-83.439-65.523-130.841-102.742h203.25c-5.166,14.569-10.377,29.279-18.046,45.215a83.436,83.436,0,0,1-19.887-2.737c-36.924-8.706-73.843-17.43-111.292-26.828a13.441,13.441,0,0,0-4.225-1.357,32.86,32.86,0,0,1,5.764,3.059c34.654,12.949,68.531,24.457,101.723,37.173C415.993,149.748,420.049,156.914,425.3,161.95Z" transform="translate(895.644 254.435)" fill="#1e2e47"/>
    <path id="Path_22" data-name="Path 22" d="M370.221,260.042a6.839,6.839,0,0,1-.178-2.212c-1.475-32.382,4.769-61.766,34.535-84.672,30.443-23.423,90.98-29.037,129.434-11.828,38.714,17.329,61.766,58.583,50.617,96.595-6,1.4-9.537,1.208-13.122-.332-3.394-5.841-5.463-12.172-10.318-14.464-11.46-5.4-12.739-11.636-6.18-19.95,13.173-16.695-.046-22.279-16.178-22.683-42.487-1.068-85.047-.838-127.539.128-4.81.109-14.429,10.164-13.227,12.289,10.039,17.76-2.846,31.4-11.579,46.321C379.867,259.607,375.044,259.826,370.221,260.042Z" transform="translate(1315.851 417.177)"/>
    <path id="Path_23" data-name="Path 23" d="M154.754,437.3c-8,42.387-14.893,57.6-36.931,76.46V457.379c-24.5,11.247-29.576,31.8-22.6,86.982-5.017,6.622-9.915,11.662-19.353,21.377-2.348-39.82-25.667-72.141-10.917-109.4,9.668-18.7,19.2-35.988,29.413-55.71.919-5.316,1.165-8.189,3.285-11.307,18.568.944,35.263,2.133,52.1,4.142a7.342,7.342,0,0,0,1.229,2.22c.643,8.876,1.287,17.748,2.081,29.66C153.724,431.351,154.24,434.326,154.754,437.3Z" transform="translate(210.826 1077.745)" fill="#f6a485"/>
    <path id="Path_24" data-name="Path 24" d="M468.137,239.791c-47.42,93.393-161.886,72.738-209.667,23.97-4.773-4.87-9.012-10.088-14.379-16.321a252.593,252.593,0,0,1,44.25-21.384,230.94,230.94,0,0,1,19.3,21.5c-.05-.034-.105-.128.082,1.148a197.561,197.561,0,0,0,18.2,13.943c-.055-.023-.132-.1.612,1.144,28.008,13.792,48.461,13.04,67.9-1.2-.014.03-.1.038,1.539-.076a105.982,105.982,0,0,0,12.163-15.053c-.014.053-.123.106,1.494.06,3.595-7.777,5.577-15.51,7.578-24.068.014-.823.078-2.473.078-2.473C433.863,226.871,450.443,232.768,468.137,239.791Z" transform="translate(867.232 610.525)" fill="#f8a685"/>
    <path id="Path_25" data-name="Path 25" d="M478.672,408.256c-.064-3.013.315-6.029,2.33-7.389,40.107-27.04,62.561-62.57,74.9-104.47,4.293,3.239,6.331,8.295,10.537,11.175,22.157,15.177,31.406,33.326,20.892,54.627a171.5,171.5,0,0,1-34.786,47.639C530.783,430.6,502.661,429.032,478.672,408.256Z" transform="translate(1704.075 819.857)" fill="#1e2e47"/>
    <path id="Path_26" data-name="Path 26" d="M68.407,209.2c39.976,6.441,73.588,19.991,85.007,56.922,6.347,20.527,16.155,40.314,24.138,60.505,2.491,6.3,4.116,12.833,5.361,16.793-38.093-29.226-77.1-59.15-117.5-89.652C65.428,239.091,66.82,224.99,68.407,209.2Z" transform="translate(229.813 577.849)" fill="#1e2e47"/>
    <path id="Path_27" data-name="Path 27" d="M374.813,247.551c.493,1.012.429,2.662-.63,4.549-3.421,8.94-5.782,15.993-8.148,23.049a11.672,11.672,0,0,0-1.265.408,162.578,162.578,0,0,0-12.41,14.653s.082-.008-1.795-.325c-23.5-.128-45.127.06-66.75.249,0,0,.078.076.324-1.227-6.029-5.5-12.3-9.7-18.576-13.894,0,0,.055.094.439-1.291-3.124-10.194-6.632-19-10.145-27.806,2.412-.736,4.823-1.472,8.345-2.756a83.336,83.336,0,0,0,10.464-15.5c.082-1.537.758-1.488,2.43-.906,28.319,4.61,54.061,5.029,75.355-12.081a6.458,6.458,0,0,0,1.188-.366,51.78,51.78,0,0,0,5.426-3.262c.082-.011.11-.14.543,1.155.868,3.054,1.3,4.814,1.727,6.573,2.064,7.053,4.124,14.109,7.774,21.8A25.2,25.2,0,0,1,374.813,247.551Z" transform="translate(909.204 582.936)" fill="#fca583"/>
    <path id="Path_28" data-name="Path 28" d="M132.477,170.95c-9.342,15.457-21.883,19.485-40.826,15.649-23.047-4.67-29.678-18.035-23.872-33.345,3.4-8.963,16.34-18.991,27.436-21.709,25.315-6.192,41.822,11.538,37.261,39.4M116.9,161c.2-8.268.824-18.209-13.651-16.283-8.074,1.072-18.288,6-21.6,11.594-2.284,3.862,4.179,15.861,9.252,17.084C99.871,175.556,114.519,179,116.9,161Z" transform="translate(231.156 358.898)" fill="#0d9aed"/>
    <path id="Path_29" data-name="Path 29" d="M159.868,119.185c11.063,17.93.891,31.4-14.607,37.551-10.4,4.123-29.423,1.824-39.419-3.84-13.876-7.86-13.069-22.426-6.553-35.768,7.364-15.079,23.076-15.581,37.678-13.2,8.249,1.344,14.986,9,22.9,15.253M129.841,151.4c4.357-2.322,10.149-3.851,12.789-7.117,6.641-8.223,10.638-16.287-1.7-24.971-12.437-8.755-23.358-3.606-28.468,3.485C103.652,135.023,110.474,145.119,129.841,151.4Z" transform="translate(334.5 282.71)" fill="#0b6cd1"/>
    <path id="Path_30" data-name="Path 30" d="M398.184,175.884c-36.129,4.338-60.83-13.841-51.193-35.8,5.9-13.444,19.891-20.063,34.567-18.7,10.989,1.019,26.231,8.193,30.086,15.88,6.4,12.757,6.152,28.361-13.46,38.626M368.116,137.53c-10.414,14.871-7.349,27.051,7.815,27.5,7.08.215,16.621-2.884,20.892-7.256,3.677-3.76,4.124-15.374,1.329-16.676C390.31,137.443,380.056,137.318,368.116,137.53Z" transform="translate(1226.847 333.618)" fill="#0b6cd1"/>
    <path id="Path_31" data-name="Path 31" d="M451.882,165.6c-30.812.011-44.88-10.235-43.844-30.49.79-15.4,18-26.723,38.933-26.134,15.639.442,26.377,7.181,28.922,19.077,3.421,16,1.242,31.476-24.011,37.547M430.9,152.445c6.975.513,16.612,3.59,20.316.955,5.887-4.179,11.049-12.4,10.4-18.473-.534-5.052-9.039-11.828-15.566-13.38-4.928-1.17-15.822,3.572-17.768,7.709C425.418,135.365,428.126,143.267,430.9,152.445Z" transform="translate(1451.923 299.626)" fill="#0d9aed"/>
    <path id="Path_32" data-name="Path 32" d="M414.477,247.485c1.567-15.544,5.212-31.159,7.911-46.883.6-3.492-2.142-7.373-2.814-12.251a106.808,106.808,0,0,1,12.666-8.117c17.612,4.436,21.691,16.608,20.376,28.973C450.277,231.179,436.1,244.631,414.477,247.485Z" transform="translate(1475.082 497.45)" fill="#f47c5c"/>
    <path id="Path_33" data-name="Path 33" d="M460.268,195.875c-26.862,8.725-5.353-12.463-20.718-15.993-4.348-1.642-13.789-5.2-23.226-8.767,9-3.843,18-7.687,29.054-12.41,1.425-4.387,3.782-11.643,6.139-18.9l7.436,1.45c.977,6.626,1.959,13.248,2.626,17.786,10.989,4.157,20.426,7.732,29.862,11.3l-30.182,12.735C461.168,184.549,460.862,189.411,460.268,195.875Z" transform="translate(1481.671 385.237)" fill="#0b6cd1"/>
    <path id="Path_34" data-name="Path 34" d="M119.093,174.147c-8.559,4.368-17.124,7.2-28.019,10.813-2.242,4.7-5.84,12.247-9.438,19.791q-2.972-.64-5.945-1.287-.7-10.941-1.421-21.882C66,174.589,43.986,188.464,43.032,167.4l30.075-1.412c1.037-8.053,2.108-16.367,3.179-24.68l6.384-1.37c2.773,7.717,5.546,15.438,8.642,24.057C99.22,166.449,109.154,169.53,119.093,174.147Z" transform="translate(149.949 385.614)" fill="#0b6cd1"/>
    <path id="Path_35" data-name="Path 35" d="M108.587,164.165c-4.6-6.841-7.562-14.445-11.124-23.589l-28.469-3.534q.008-3.313.016-6.626l30.446-3.572c.911-7.309,1.888-15.151,2.866-22.992q3.052-.866,6.1-1.737c3.076,7.894,6.152,15.789,9.373,24.057,8.528,1.661,17.974,3.5,27.421,5.339q-.112,2.582-.223,5.161-13.646,2.084-27.26,4.176A164.433,164.433,0,0,1,108.587,164.165Z" transform="translate(242.568 280.641)" fill="#1b31ab"/>
    <path id="Path_36" data-name="Path 36" d="M264,97q55.372,13.078,110.757,26.148c5.8,1.367,11.624,2.65,19.174,4.066,1.937,6.679,3.2,13.425,1.772,19.757-.534,2.363-7.363,3.757-12.172,4.285-6.1-6.346-10.153-13.512-16.8-16.061-33.192-12.716-67.069-24.223-101.719-37.174C264,97,264,97,264,97Z" transform="translate(938.258 266.44)" fill="#0d1a27"/>
    <path id="Path_37" data-name="Path 37" d="M77.163,191.658c1.654-1.163,4.192-1.442,4.508-.876,13.074,23.464,25.948,47,34.581,72.681-15.722-14.347-31.445-28.69-48.021-44.1C70.589,209.837,73.8,201.391,77.163,191.658Z" transform="translate(239.847 525.943)" fill="#1e2e47"/>
    <path id="Path_38" data-name="Path 38" d="M435.711,149.3c-5.673,3.451-10.793,6.415-12.821,10.443-2.471,4.9-2.343,10.7-3.339,16.106q-4.049-.079-8.1-.155c-1.4-7.793-2.8-15.589-4.458-24.827-9.071-1.038-18.855-2.156-28.634-3.277,23.641-3.745,37.81-13.071,29.374-39.476q5.371,2.345,10.734,4.685c1.964,7.721,1.1,17.6,6.659,22.577,6.088,5.448,18.11,6.369,32.968,10.93C447.966,147.775,442.8,148.53,435.711,149.3Z" transform="translate(1346.224 297.277)" fill="#1b31ab"/>
    <path id="Path_39" data-name="Path 39" d="M47.1,356.5c9.227-3.564,19.032-5.837,30.507-8.408a183.81,183.81,0,0,1,23.932,28.761C88.511,362.234,67.527,361.037,47.1,356.5Z" transform="translate(164.458 963.341)" fill="#5dc3fa"/>
    <path id="Path_40" data-name="Path 40" d="M454.478,181.038c-2.594,2.658-6.641,4.972-12.168,7.521-27.391-4.315-22.161,15.325-31.539,25.609-1.836.563-3.152-.279-2.905-1.873.384-9.167.521-16.737,2.261-24.559,9.7-2.805,17.8-5.361,25.889-7.917,3.535.189,7.075.381,12.373.355A20.934,20.934,0,0,1,454.478,181.038Z" transform="translate(1451.392 496.301)" fill="#fae6dc"/>
    <path id="Path_41" data-name="Path 41" d="M58.961,356.405a98.489,98.489,0,0,1,22.895,12.542A98.479,98.479,0,0,1,58.961,356.405Z" transform="translate(206.777 986.405)" fill="#5dc3fa"/>
    <path id="Path_42" data-name="Path 42" d="M64.015,360.346c3.168-.215,6.779.649,11.627,2.126,1.025,1.914.291,2.956-1.887,4.274A28.631,28.631,0,0,1,64.015,360.346Z" transform="translate(224.808 997.253)" fill="#5dc3fa"/>
    <path id="Path_43" data-name="Path 43" d="M46.16,349.3c1.69-.57,2.8.249,3.741,2.314C48.708,351.809,47.32,351.08,46.16,349.3Z" transform="translate(161.11 966.189)" fill="#5dc3fa"/>
    <path id="Path_44" data-name="Path 44" d="M412.763,448.044c-.228,13.784-.644,27.565-.639,41.349,0,27.885,7.267,34.727,41.089,39.023,4.481.57,9.057.627,13.566,1.076,16.667,1.654,26.775,7.694,20.988,25.329-7.052,6.328-12.583,10.594-18.215,14.77-19.946,14.792-35.385,15.778-57.2,2.854-7.966-4.719-15.964-9.96-22.006-16.238-22.184-23.038-43.551-46.612-65.461-71.22-18.814-25.28-37.39-49.322-55.966-73.364l-7.838,4.281c20.371,24.831,40.738,49.662,61.734,76.094a122.4,122.4,0,0,1,.228,18.666c-.74,1.136-.475,1.827.836,4.145,1.046,37.1,1.708,72.432,1.521,109.227-2.375,8.778-5.2,16.083-5.225,23.393q-.48,124.17.036,248.345c.041,7.868,3.723,15.725,4.577,24.265a112.874,112.874,0,0,1-12.634,4.734,191.179,191.179,0,0,1-20.554,4.64c-44.793,3.636-87.655,7.683-130.567,9.99,1.43-14.8,4.339-27.885,4.138-40.937-.85-55.167-3.056-110.322-3.837-165.489-.27-19.349.42-38.921,3.727-58.032,4.7-27.206,16.818-53.989,17.585-81.112,1.58-55.725,1.795-111.893-4.919-167.256-8.2-67.569,6.65-131.993,24.491-196.723,27.483,12.972,56.8,23.944,81.8,39.619,16.658,10.443,28.908,26.715,40.071,41.911,27.812,37.879,53.874,76.634,81.74,117.167,3.047,7.917,4.988,13.7,6.934,19.493m-155.88,80.591c3.558,37.781-2.914,73.833-25.56,107.464a63.409,63.409,0,0,0-9.3,23.193c-1.576,8.155-.347,16.68-.347,30,9.843-25.363,17.219-44.86,25.007-64.243,5.49-13.667,13.675-26.847,16.845-40.835,5.075-22.4,8.728-45.358-4.86-67.539A97,97,0,0,0,256.883,528.635Z" transform="translate(570.922 635.17)" fill="#1b3550"/>
    <path id="Path_45" data-name="Path 45" d="M335.908,348.351c-5.12,27.255-15.644,51.961-48.292,68.943-31.114,28.388-54.518,29.241-84.394,4.78-4.43-5.535-7.331-13.259-13.556-16.227-26.108-12.455-35.046-32.374-39.76-57.919-4.289-21.958-7.756-41.111-11.218-60.264-4.568-11.534-6.879-24.182-14.2-34.36-12.661-17.594-11.341-30.324,4.49-45.011,9.176-8.51,14.516-20.127,20.284-30.819,20.581-38.17,56.482-45.74,96.292-19.379,19.284,12.768,35.887,27.749,63.644,29.682,9.834.687,19.558,10.907,27.656,18.069,10.135,8.97,18.814,19.108,27.638,29.033C380.194,252.545,369.328,268,355.649,285c-8.135,22.245-13.94,42.795-19.741,63.348m-83.64-4.957c20.417-.759,40.829-1.514,66.859-2.484,2.964-7.494,7.682-19.723,12.643-31.88,8.422-20.652-2.923-37.434-12.122-56.054-12.424-25.148-44.076-39.948-75.35-29.834-8.422,2.726-17.146,7.793-25.4,7.373-35.3-1.8-56.148,4.195-62.283,39.385-4.965,28.478-1.366,52.411,8.765,72.466,22.669,0,40.884-.193,59.085.091,8.121.125,16.224,1.2,27.8.936M213.535,383.5c20.444,8.857,40.952,9.084,59.93-1.982,6.358-3.7,9.875-10.741,14.689-16.253-7.486-4.281-14.493-11.277-22.564-12.259a197.744,197.744,0,0,0-47.379.276c-8.468,1.042-15.991,7.324-23.938,11.247A175.507,175.507,0,0,0,213.535,383.5Z" transform="translate(410.02 392.821)"/>
    <path id="Path_46" data-name="Path 46" d="M125.909,241.4c12.177-4.13,24.349-8.257,39.906-12.225,32.881,22.3,49.375,23.128,75.871,3.481,4.791-3.553,8.738-7.879,13.077-11.851,13.593,8.072,27.186,16.144,40.765,27.217-6.577,45.645-12.876,88.323-19.969,130.91-1.169,7.015-5.814,13.633-10.359,19.745-8.7-2.85-16.279-7.468-23.025-6.754-28.049,2.979-55.842,7.562-85.622,11.1a209.494,209.494,0,0,1-1.032-49.7c40.3-3.817,78.529-7.808,116.755-11.8q.233-4.044.461-8.087c-15.064-1.506-30.337-5.078-45.15-4.059-24.934,1.714-49.571,6.343-75.665,9.71a39.093,39.093,0,0,1-11.62-9.586c-.945-13.459-1.635-25.243-.507-36.882,39.4-2.265,78.3-.676,110.757-18.609q-1.295-4.995-2.6-9.986C210.988,269,174.019,274,136.273,277.556,132.3,264.546,129.106,252.971,125.909,241.4Z" transform="translate(445.614 610.042)"/>
    <path id="Path_47" data-name="Path 47" d="M145.029,226.26c4.686,11.557,7.879,23.132,11.94,37.486a113.692,113.692,0,0,1,1.612,13.565c.694,11.779,1.384,23.563,2.247,38.653,1.795,41.149,3.421,78.982,4.768,118.511.466,7.2,1.215,12.716,1.987,19.568a62.061,62.061,0,0,1-1.361,13.161c-2.713,3.239-4.531,5.384-7.335,8.812-.3,33,.388,64.711,1.553,97.463,3.065,3.024,5.664,5.014,8.569,8.257.548,3.817.786,6.377-.589,9.786,1.841,18.515,5.3,36.18,8.884,54.767a8.72,8.72,0,0,1-1.284,6.026c-1.137,7.117-1.11,12.81-1.2,20.255-.1,43.425-.082,85.1-.242,128.429.265,9.374.7,17.1.863,26.338-.16,6.626-.041,11.734-.635,17.982-2,16.831-3.279,32.518-5.888,48.986-1.772,5.188-2.215,9.6-3.152,15.562-1.8,14.434-3.12,27.312-6.312,40.741-8.441.109-15-.332-21.591-2.462.178-9.854-.114-18.05.662-26.175,5.719-59.837,11.734-119.655,17.489-179.492,4.558-47.4-7.884-93.442-15.548-139.963-5.906-35.833-13.885-72.7-9.414-108.117,5.8-45.875,21.029-90.792,11.46-137.645-8.162-39.933-14.977-80.055-22.385-120.093C127.938,233.2,135.739,229.745,145.029,226.26Z" transform="translate(425.004 625.196)" fill="#295481"/>
    <path id="Path_48" data-name="Path 48" d="M169.789,378.841c3.037-6.8,7.683-13.418,8.852-20.433,7.093-42.587,13.392-85.265,20.28-129.547a37.6,37.6,0,0,1,21.17,2.061c-1.521,11.077-4.056,19.6-6.239,28.184-18.234,71.616-22.075,143.27-12.775,216.544,6.65,52.4,10.619,105.837-7.039,158.757-11.583,34.715-16.69,70.608-10.651,107.819,6.025,37.135,5.787,75.169,5.18,112.776-.489,30.6-5.586,61.158-10.323,92.159-9.532-.555-17.379-1.533-25.167-3.87a92.777,92.777,0,0,1,5.933-15.151c3.056-30.51,5.074-59.773,7.1-90.743.279-11.927.553-22.151,1.909-33.6-.918-24.046-2.928-46.861-5.335-71.352-2.256-12.421-4.111-23.17-6.321-35.044-.224-3.432-.091-5.742,1.8-8.94,6.44-37.728,11.158-74.569,15.763-111.417.731-5.837.987-11.715,1.366-17.575,1.631-25.009,4.577-50.028,4.275-75.018-.155-12.946-6.084-25.847-9.473-39.831a26.311,26.311,0,0,1,.347-6.894c.292-18.526.018-35.485-.315-53.517C169.976,381.706,169.88,380.272,169.789,378.841Z" transform="translate(542.532 630.56)" fill="#295481"/>
    <path id="Path_49" data-name="Path 49" d="M222.251,331.492c-3.64-5.539-5.581-11.326-7.34-18.428,3.444-10.382,6.71-19.451,10.473-29.377,46.52-23.1,102.248-10.79,132.682,20.965,5.609,5.856,7.427,14.192,9.907,23.57a62.085,62.085,0,0,0-2.576,8.389c-15.255-.849-30.511-1.7-49.128-3.036-6.618-.963-9.875-1.438-13.127-1.914C276.814,322.5,250.391,325.232,222.251,331.492Z" transform="translate(763.129 751.474)" fill="#f7a686"/>
    <path id="Path_50" data-name="Path 50" d="M123.337,229.049c8.61,39.91,15.424,80.032,23.587,119.965,9.569,46.853-5.659,91.77-11.46,137.645-4.472,35.414,3.508,72.285,9.414,108.117,7.664,46.521,20.106,92.566,15.548,139.963-5.755,59.837-11.77,119.655-17.489,179.492-.777,8.125-.484,16.321-2.261,26.315a13.225,13.225,0,0,1-7.925,1.053c6.088-67.95,15.612-135.848,17.087-203.866,1.023-47.17-6.084-94.888-14.959-141.662-9.72-51.229-15.7-101.442.3-152.52,14-44.7,3.974-89.493-3.828-134.085-4.321-24.733-8.2-49.515-12.456-75.947C119.856,230.959,120.993,230.065,123.337,229.049Z" transform="translate(420.598 632.936)" fill="#1d53c5"/>
    <path id="Path_51" data-name="Path 51" d="M158.955,944.231c3.051-30.573,8.148-61.128,8.637-91.732.608-37.607.845-75.641-5.18-112.776-6.038-37.211-.932-73.1,10.651-107.819,17.658-52.92,13.689-106.358,7.039-158.757-9.3-73.274-5.458-144.928,12.775-216.544,2.183-8.585,4.718-17.107,7.418-27.195,2.832-.785,5.33-.034,8.587,1.635C191.8,296.69,176.946,361.114,185.145,428.683c6.714,55.363,6.5,111.53,4.919,167.256-.767,27.123-12.88,53.906-17.585,81.112-3.307,19.111-4,38.683-3.727,58.032.781,55.167,2.987,110.322,3.837,165.489.2,13.052-2.709,26.134-5.18,41.53A12.709,12.709,0,0,1,158.955,944.231Z" transform="translate(563.505 633.065)" fill="#1d53c5"/>
    <path id="Path_52" data-name="Path 52" d="M222.765,233.7c-4.252,5.444-8.2,9.771-12.99,13.323-26.5,19.647-42.989,18.817-74.176-3.707-1.21-7.143-.731-13.9-.068-22.377,30.063,22.747,53.467,21.894,83.613-5.312C220.984,220.758,221.833,226.489,222.765,233.7Z" transform="translate(477.525 595.673)" fill="#f6a485"/>
    <path id="Path_53" data-name="Path 53" d="M164.461,242.685a502.741,502.741,0,0,1,17.014-62.08c18.946,6.218,19.289,19.013,16.274,31.7C194.287,226.877,187.509,240.283,164.461,242.685Z" transform="translate(583.148 498.483)" fill="#ed7659"/>
    <path id="Path_54" data-name="Path 54" d="M138.51,180.953c5.189,19.236,8.655,38.389,12.017,59.173-25.482-3.881-42.464-29.584-31.781-48.579C121.459,186.722,130.6,184.362,138.51,180.953Z" transform="translate(408.472 499.449)" fill="#ed7659"/>
    <path id="Path_55" data-name="Path 55" d="M260.733,220.266a146.744,146.744,0,0,1,11.519,27.867c-6.006-5.482-11.675-12.387-18.133-20.418C255.357,224.472,257.38,222.358,260.733,220.266Z" transform="translate(903.004 608.56)" fill="#fae6dc"/>
    <path id="Path_56" data-name="Path 56" d="M287.646,492.849c-21.737,1.31-43.46,3.553-65.21,3.726-38.568.31-77.15-.642-117.093-3.232a69.2,69.2,0,0,1-4.216-12.863c-.466-4.062-.767-6.769-1.069-9.476.3-16.68.6-33.356,3.188-51.678,10.318-.2,18.311,1.42,26.391,2.647,50.759,7.721,101.536,15.355,152.45,24.7C284.037,463.185,285.841,478.019,287.646,492.849Z" transform="translate(353.39 1160.99)" fill="#1b3550"/>
    <path id="Path_57" data-name="Path 57" d="M281.224,456.828q-76.152-11.49-152.3-23.015c-8.08-1.227-16.073-2.85-25.843-4.387-2.051-4.24-2.361-8.385-2.818-14.384,7.774.31,14.114.563,23.6,1.563,7.536,1.148,11.93,1.548,16.32,1.948,18.489,2.379,36.974,4.757,57.258,6.985,3.914.106,6.029.366,9.747.487,8.162.3,14.726.74,25.1.619C281.511,427.35,282.466,428,281.224,456.828Z" transform="translate(354.107 1149.149)" fill="#010d2c"/>
    <path id="Path_58" data-name="Path 58" d="M84.9,459.529c4.585-20.195,9.532-40.337,13.652-60.6,3.946-19.4,7.033-38.921,10.5-58.387l8.226.249c0,45.864,0,91.732-.945,139.367-.945,1.771-2.834,1.684-3.471.517-9.525-6.524-18.413-11.881-27.442-18.22C85.153,460.828,85.027,460.178,84.9,459.529Z" transform="translate(299.321 942.39)" fill="#000e19"/>
    <path id="Path_59" data-name="Path 59" d="M129.678,410.3c-16.695-1.185-33.39-2.375-53.048-3.583-3.724-.049-4.485-.075-5.245-.1-1.743-7.238-3.486-14.471-5.7-23.668,24.855,1.487,47.456,1.227,69.215,4.64,17.835,2.794,7.352,12.746.47,21.214A30.564,30.564,0,0,1,129.678,410.3Z" transform="translate(230.759 1060.077)" fill="#000e19"/>
    <path id="Path_60" data-name="Path 60" d="M127.068,334.556c-6.411,18.315-12.525,35.138-17.827,52.135-5.043,16.159-9.238,32.5-14.4,50.874-9.225-16.68,23-120.837,46.647-143.686C136.9,306.969,132.311,320.054,127.068,334.556Z" transform="translate(329.011 812.868)" fill="#000e19"/>
    <path id="Path_61" data-name="Path 61" d="M145.736,459.009c-3.764-21.826-4.924-42.7-11.994-62.1-6.915-18.983-19.855-36.463-29.913-54.178,32.607,12.285,60.4,85.038,46.616,129.313A99.217,99.217,0,0,1,145.736,459.009Z" transform="translate(366.843 948.459)" fill="#000e19"/>
    <path id="Path_62" data-name="Path 62" d="M158.636,526.033a83.125,83.125,0,0,1,2.489,10.556c-12.4-9.393-28.622-18.413-35.921-30.97-12.272-21.116-18.888-44.482-27.856-66.908-4.511-11.281-8.963-22.577-13.363-35.327,7.313,9.85,19.326,20.746,20.836,32.563,3.712,29.033,17.258,53.947,37.95,79.462C149.23,520.181,153.934,523.107,158.636,526.033Z" transform="translate(296.049 1116.793)" fill="#1d47ba"/>
    <path id="Path_63" data-name="Path 63" d="M115.123,400.078a7.312,7.312,0,0,1,4.516-.359c.845,3.141.6,6.014-.23,9.884-22.491-5.735-44.4-12.467-66.306-19.2l2.373-4.848C74.977,390.632,94.478,395.706,115.123,400.078Z" transform="translate(185.876 1067.318)" fill="#1d47ba"/>
    <path id="Path_64" data-name="Path 64" d="M88.473,373.1c8.887,5.357,17.775,10.715,27.1,18.262a10.27,10.27,0,0,0,4.446,4.421,2.649,2.649,0,0,1-1.793,2.462,212.641,212.641,0,0,1-25.4-2.171,11.228,11.228,0,0,1-3.5-1.593,52.836,52.836,0,0,0-5.2-3.043,3.579,3.579,0,0,1,1.187-3.1A67.8,67.8,0,0,0,88.473,373.1Z" transform="translate(296.409 1032.733)"/>
    <path id="Path_65" data-name="Path 65" d="M65.242,395.757a91.923,91.923,0,0,1,5.783,11.489c.309.8-1.121,2.058-3.789,6.49-9.044-14.822-16.829-27.583-24.614-40.344q2.719-1.325,5.439-2.658C53.5,378.7,58.933,386.662,65.242,395.757Z" transform="translate(148.491 1026.172)" fill="#1d47ba"/>
    <path id="Path_66" data-name="Path 66" d="M86.063,379.543c7.533-.249,15.362.763,24.945,1.707C98.92,390.809,97.976,390.8,86.063,379.543Z" transform="translate(303.463 1050.518)" fill="#026bdd"/>
    <path id="Path_67" data-name="Path 67" d="M82.845,409.993c-1.736-3.3-2.251-6.275-2.25-10.722,5.454,2.915,10.392,7.3,15.45,12.882C92.132,412.334,88.1,411.326,82.845,409.993Z" transform="translate(283.956 1105.377)" fill="#1d47ba"/>
    <path id="Path_68" data-name="Path 68" d="M111.635,442.477c-4.534-1.57-9.238-4.5-14.522-8.438,2.926-1.023,6.434-1.031,11.7-1.038C110.868,435.708,111.169,438.415,111.635,442.477Z" transform="translate(342.882 1198.993)" fill="#026bdd"/>
    <path id="Path_69" data-name="Path 69" d="M100.531,338.465a26.816,26.816,0,0,1,5.965,6.671c-1.909.177-5.326.812-5.486.457A9.9,9.9,0,0,1,100.531,338.465Z" transform="translate(353.465 936.614)" fill="#1d53c5"/>
    <path id="Path_70" data-name="Path 70" d="M120.039,416.58c-4.083.77-8.477.37-14.219-.88A35.478,35.478,0,0,1,120.039,416.58Z" transform="translate(373.946 1149.951)" fill="#026bdd"/>
    <path id="Path_71" data-name="Path 71" d="M87.653,374.3c-.407,5.565-.957,10.148-2.973,15.411-.877-4.957-.287-10.594,1.38-17.288C87.261,372.022,87.387,372.671,87.653,374.3Z" transform="translate(297.087 1030.546)" fill="#026bdd"/>
    <path id="Path_72" data-name="Path 72" d="M83.962,378.112a6.486,6.486,0,0,1,4.727,2.284A6.5,6.5,0,0,1,83.962,378.112Z" transform="translate(295.967 1046.652)" fill="#026bdd"/>
    <path id="Path_73" data-name="Path 73" d="M79.724,391.436c.849-.97,1.834-1.117,4.315-1.393.877,1-.021,1.937-2.143,3.152C80.953,393.656,79.861,392.259,79.724,391.436Z" transform="translate(280.85 1079.766)" fill="#026bdd"/>
    <path id="Path_74" data-name="Path 74" d="M95.011,381.139c-1.42.306-2.756-.438-3.892-2.2.2-1.023,2.089-.936,3.033-.94C95.1,378.693,95.1,379.391,95.011,381.139Z" transform="translate(321.5 1046.324)" fill="#026bdd"/>
    <path id="Path_75" data-name="Path 75" d="M783.736,340.4c2,15.717,2.672,30.792,3.3,47.65-.425,2.42-.8,3.062-2.919,5.236-19.033,15.121-36.33,28.708-54.075,42.647-19.544-15.419-36.819-29.041-61.077-48.171l-50.731,55.189c-18.581-19.844-32.854-35.085-52.49-56.062l-46.99,50.576q-5.2.725-10.4,1.454-21.814-23.9-43.629-47.812-5.173-.448-10.345-.9c-14.589,15.906-29.177,31.812-43.611,47.552-24.687-17.393-44.044-31.03-63.708-46.355.174-14.354.649-27.021,1.923-40.567a57.838,57.838,0,0,0,2.453-9.51c17.585-13.765,35.17-27.531,58.185-45.551,14.726,16.8,28.963,33.039,43.2,49.277q5.8-.708,11.611-1.423,21.506-24.221,43.021-48.435,2.727,3.217,5.449,6.437c13.278,9.937,27.487,19.164,39.559,30.015,11.095,9.975,20.385,9.1,30.547.332,12.022-10.367,23.76-20.954,37.851-33.416,17.681,13.9,35,27.519,54.892,43.157,18-14.332,35.631-28.38,60.583-48.254C752.568,309.773,767.494,324.765,783.736,340.4Z" transform="translate(1234.571 811.725)" fill="#472e3d"/>
    <path id="Path_76" data-name="Path 76" d="M490.962,333c-.475,12.663-.95,25.329-1.48,41.492-1.48,123.064-2.9,242.629-6.271,362.442-42.985,7.717-84.024,15.181-125.063,22.645-2.75-8.812-5.5-17.62-6.481-28.048,26.09-1.707,50.412-1.71,74.729-1.914,26.249-.223,35.412-7.66,35.453-29.558q.219-124.4-.014-248.8c-.041-21.38-8.345-28.267-33.9-28.524-40.267-.4-80.543-.468-120.815-.676-.151-27.889-.3-55.775,1.836-82.788,11.231,10.167,19.321,20.142,29.278,28.618,29.479,25.1,46.781,24.733,79.931-1.072,5.531-3.575,9.6-6.592,13.666-9.609,1.407,2.175,2.814,4.349,5.75,8.9,17.315-22.826,33.809-44.561,51.677-65.893a16.494,16.494,0,0,1,3.512,6.03c-.644,4.259-1.288,8.517-2.028,15.694C490.743,327.571,490.853,330.282,490.962,333Z" transform="translate(1091.793 830.451)" fill="#1e2e47"/>
    <path id="Path_77" data-name="Path 77" d="M365.235,392.829a32.5,32.5,0,0,1-13.94,9.526c-9.724-35.78-17.667-70.624-25.605-105.467,1.927-2.968,3.859-5.935,6.573-10.016C343.764,320.978,354.474,356.2,365.235,392.829Z" transform="translate(1158.334 793.418)" fill="#ec7b5e"/>
    <path id="Path_78" data-name="Path 78" d="M385.974,301.957c-1.777-2.311-3.12-7.015-2.17-7.355,22.76-8.17,47.561-13.527,68.207-24.333,19.773-10.349,35.275-26.266,52.645-39.748C502.167,258.728,437.272,293.179,385.974,301.957Z" transform="translate(1364.536 637.025)" fill="#20020b"/>
    <path id="Path_79" data-name="Path 79" d="M350.515,348.91c-1.6-1.034-2.316-2.911-3.353-6.245,12.944-20.353,26.213-39.238,39.482-58.127l6.445,3.069C379.194,307.766,365.3,327.919,350.515,348.91Z" transform="translate(1234.935 786.945)" fill="#20020b"/>
    <path id="Path_80" data-name="Path 80" d="M348.156,315.828c-.909-1.831-1.019-4.542-.708-8.57a1.961,1.961,0,0,1,2.489-1.095A24.606,24.606,0,0,1,348.156,315.828Z" transform="translate(1235.398 846.735)" fill="#1d53c5"/>
    <path id="Path_81" data-name="Path 81" d="M701.758,333.141c42.4-.038,82.677.026,122.944.43,25.56.257,33.864,7.143,33.9,28.524q.254,124.4.014,248.8c-.041,21.9-9.2,29.335-35.453,29.558-24.317.2-48.639.208-74.967.563-56.135.019-110.26-.23-168.651-.4-37.6.079-70.943.075-104.281.068-9.322,0-18.64,0-31.968-.008-14.885.128-25.756.257-36.631.389-29.081-.079-58.163-.159-91.492-.313-17.014-.143-29.83.355-42.537-.408-23.637-1.423-47.214-3.579-70.815-5.429-1.991-7.86-5.673-15.717-5.714-23.585q-.617-124.17-.036-248.345c.027-7.309,2.85-14.615,6.952-23.929,12.89-3.179,23.171-5.191,33.507-5.376,41.318-.755,82.649-.944,123.976-1.34,44.309.344,88.619.691,136.673,1.174,7.235-.2,10.725-.532,15.785-.4a41.029,41.029,0,0,0,8.084-.279c21.111.226,42.222.453,67.467.97,16.781-.219,29.428-.732,42.071-1.246,23.016.276,46.027.551,71.166.581M527.567,448.118c-5.216.608-10.61.7-15.607,1.91-27.282,6.622-41.569,26.3-36.134,49.288,5.4,22.853,26.793,34.24,59.8,31.831,24.125-1.759,39.9-17.729,40.2-40.7C576.115,468.271,560.777,453.713,527.567,448.118Z" transform="translate(695.022 919.614)" fill="#18315a"/>
    <path id="Path_82" data-name="Path 82" d="M357.966,426.815c-41.487,1.9-82.818,2.088-124.136,2.843-10.336.185-20.618,2.2-32.653,3.908-2.393-34.791-3.056-70.121-3.864-107.895a11.648,11.648,0,0,0-.735-3.768c.018-5.588.041-11.179.4-19.3a21.164,21.164,0,0,1,1.334-4.84c21.677,23.37,43.044,46.944,65.229,69.982,6.043,6.279,14.041,11.519,22.006,16.238,21.814,12.923,37.253,11.938,57.2-2.854,5.632-4.176,11.163-8.442,18.069-13.123C360.807,386.807,359.469,406.058,357.966,426.815Z" transform="translate(697.726 823.637)" fill="#1e2e47"/>
    <path id="Path_83" data-name="Path 83" d="M388.215,289.7c9.158,34.164,17.1,69.007,25.368,105.346-31.37,26.742-48.671,27.111-78.15,2.009-9.957-8.476-18.046-18.451-27.611-28.958,46.771-5.04,63.753-31.008,68.905-67.244A93.331,93.331,0,0,1,388.215,289.7Z" transform="translate(1094.589 801.281)" fill="#faa685"/>
    <path id="Path_84" data-name="Path 84" d="M290.453,316.211c13.876-12.1,25.98-26.235,42.081-35.761,19.695-11.651,28.209-7.547,34.252,11.6,2.466,7.819,4.609,15.706,6.029,20.565-5.938,6.131-10.551,10.9-16.822,17.488a45.518,45.518,0,0,0-4.339,8.091s.493-.117-.909.234a69.011,69.011,0,0,0-8.386,10.734s.5.185-.69.276a9.855,9.855,0,0,0-3.156,3.994s.292-.026-1.023.359a27.184,27.184,0,0,0-4.969,6.5s.982.057-.466-.174a25.846,25.846,0,0,0-7.326,4.466s.311.091-1.2.113c-6.02.887-10.523,1.752-15.032,2.616-7.075-13.792-14.146-27.587-20.654-43.878A58.067,58.067,0,0,1,290.453,316.211Z" transform="translate(1023.307 757.561)" fill="#f6a485"/>
    <path id="Path_85" data-name="Path 85" d="M430.2,285.1c1.352,1.752.667,3.322-.836,5.954-59.88,3.6-118.943,6.15-180.184,8.619-1.685-2.148-1.192-4.217.11-7.105C309.45,289.47,368.8,287.2,430.2,285.1Z" transform="translate(881.532 788.497)" fill="#20020b"/>
    <path id="Path_86" data-name="Path 86" d="M346.922,384.991a90.062,90.062,0,0,1-12.149.54c-17-11.209-32.621-21.66-47.53-32.775-15.47-11.53-30.241-23.7-45.319-35.591q2-1.846,4-3.685c33.3,22.328,66.608,44.66,100.613,68.622A4.933,4.933,0,0,1,346.922,384.991Z" transform="translate(859.498 867.27)" fill="#20020b"/>
    <path id="Path_87" data-name="Path 87" d="M302.938,278.017c-13.31,2.68-24.843,5.135-36.38,7.585-.256-1.106-.516-2.209-.772-3.315l91.752-32.835q1.576,1.869,3.147,3.745C342.027,261.4,323.373,269.594,302.938,278.017Z" transform="translate(944.626 689.564)" fill="#20020b"/>
    <path id="Path_88" data-name="Path 88" d="M368.181,355.083c-11.323,1.159-23.97,1.673-38.7,1.7-14.2-6.007-26.533-11.24-38.358-17.167-7.587-3.806-14.415-8.631-21.869-14.3a7.434,7.434,0,0,1-.251-1.329C301.623,334.137,334.24,344.285,368.181,355.083Z" transform="translate(956.112 896.445)" fill="#20020b"/>
    <path id="Path_89" data-name="Path 89" d="M345.117,301.783a96.273,96.273,0,0,1,16.2-3.832c-5.7,4.678-11.99,11.5-20.193,13.943-20.33,6.052-41.532,10.1-62.383,14.951q-.754-2.186-1.507-4.368C299.456,315.941,321.677,309.4,345.117,301.783Z" transform="translate(985.47 824.17)" fill="#20020b"/>
    <path id="Path_90" data-name="Path 90" d="M259.071,288.22c4.006-.751,7.262-.276,12.04.766-12.026,12.425-25.578,24.283-39.125,36.142q-2.466-1.807-4.933-3.606C237.476,310.831,247.894,300.139,259.071,288.22Z" transform="translate(806.445 796.143)" fill="#20020b"/>
    <path id="Path_91" data-name="Path 91" d="M303.767,247.7c-3.375,3.666-6.12,6.267-8.866,8.865q-2.316-1.342-4.622-2.688,6.248-6.654,12.5-13.3A22.57,22.57,0,0,1,303.767,247.7Z" transform="translate(1032.005 664.909)" fill="#20020b"/>
    <path id="Path_92" data-name="Path 92" d="M265.007,321.992a153.636,153.636,0,0,1,17.471,6.452c.795,1.1.763,1.133.74,1.152a145.443,145.443,0,0,1-17.462-6.464A6.388,6.388,0,0,1,265.007,321.992Z" transform="translate(941.846 890.894)" fill="#086fc6"/>
    <path id="Path_93" data-name="Path 93" d="M300.143,301.831c.653-3.387,2.983-6.849,6.609-10.854C305.971,294.209,303.893,297.984,300.143,301.831Z" transform="translate(1067.195 804.814)" fill="#066bdb"/>
    <path id="Path_94" data-name="Path 94" d="M259.553,318.154a8.725,8.725,0,0,1,4.431.1A8.771,8.771,0,0,1,259.553,318.154Z" transform="translate(922.389 879.536)" fill="#086fc6"/>
    <path id="Path_95" data-name="Path 95" d="M270.116,326.019c-2.2-1.1-4.376-2.209-6.554-3.319q1.124-1.07,2.252-2.145a21.857,21.857,0,0,1,4.179,4.421C270.162,325.978,270.13,326.008,270.116,326.019Z" transform="translate(936.692 886.909)" fill="#086fc6"/>
    <path id="Path_96" data-name="Path 96" d="M297.948,301.315c-.2-1.672,1.023-3.711,3.512-6.248C301.606,296.694,300.487,298.824,297.948,301.315Z" transform="translate(1059.291 816.165)" fill="#066bdb"/>
    <path id="Path_97" data-name="Path 97" d="M302.127,295.433c-.32-1.533.576-3.624,2.649-6.275C305.087,290.691,304.219,292.783,302.127,295.433Z" transform="translate(1074.048 799.765)" fill="#066bdb"/>
    <path id="Path_98" data-name="Path 98" d="M296.242,301.51c.475-1.537,2.434-3.1,5.8-4.844C301.536,298.15,299.631,299.815,296.242,301.51Z" transform="translate(1053.278 820.603)" fill="#066bdb"/>
    <path id="Path_99" data-name="Path 99" d="M266.219,334.283c-1.571-.468-1.261-1.722-1.083-2.352a22.645,22.645,0,0,1,8.176,1.518C272.134,334.252,269.96,334.5,266.219,334.283Z" transform="translate(941.772 918.446)" fill="#086fc6"/>
    <path id="Path_100" data-name="Path 100" d="M299.287,297.628c-.457-.831.2-2.129,2.119-3.741C301.909,294.771,301.15,295.964,299.287,297.628Z" transform="translate(1063.643 812.89)" fill="#066bdb"/>
    <path id="Path_101" data-name="Path 101" d="M194.034,418.343a123.056,123.056,0,0,1,19.786-4.2c40.888,9.08,78.84,17.658,116.787,26.236-1.48,17.979-1.265,36.233-5.431,53.777-1.329,5.6-14.063,12.95-21.951,13.274-36.435,1.487-73.007.785-111.744-.993-2.384-15.664-2.558-29.471-2.553-44.966C190.745,445.968,192.389,432.157,194.034,418.343Z" transform="translate(670.431 1146.648)"/>
    <path id="Path_102" data-name="Path 102" d="M318.134,439.87c41.468-9.027,82.507-16.491,127.132-23.9,10,1.518,16.416,2.986,22.6,5.893-1.379,9.257-2.535,17.076-3.759,26.613-1.695,19.194-3.311,36.671-4.933,54.147-37.184.14-74.386-.174-111.552.638-14.8.321-19.595-5.293-21.234-16.14C324.085,471.83,320.651,456.656,318.134,439.87Z" transform="translate(1131.378 1151.719)"/>
    <path id="Path_103" data-name="Path 103" d="M426.664,430.007c18.147.668,36.631-.234,54.367,2.371,27.264,4,29.926,9.514,20.558,34.519h-117.4c-41.016,0-82.042.4-123.035-.363-7.582-.14-15.041-4.931-22.559-7.573,4.408-7.358,7-19.436,13.57-21.165,18.215-4.791,38.089-5.3,57.318-7.411,3-.328,6.07-.128,13.355-.249C360.28,430.037,393.472,430.022,426.664,430.007Z" transform="translate(847.629 1190.683)" fill="#163463"/>
    <path id="Path_104" data-name="Path 104" d="M464.8,397.089c25.4,37.853,52.855,74.886,63.379,118.273,3.119,12.859,7.367,25.216-3.727,38.291a654.873,654.873,0,0,1-80.091.351c-2.453-9.4-2.727-16.929-2.791-26.183-1.128-19.387-2.476-37.056-2.1-55.239,16.205-1.442,21.435-7.457,21.348-19.8C460.685,434.228,463.33,415.657,464.8,397.089Z" transform="translate(1563.999 1099.321)"/>
    <path id="Path_105" data-name="Path 105" d="M176.895,488.77c1.1-30.509.142-31.162-47.205-32.42a130.016,130.016,0,0,1,4.49-40.167c36.156-5.41,69.833-9.276,104.865-12.044,1.859,13.036,2.366,24.974,2.878,36.912-1.612,4.183-3.225,8.366-6.143,14.9-23.742,5.761-16.735,19.832-16.813,33.088-.484,16.589-.85,31.48-1.215,46.37-10.487.087-20.979.174-33.384-.1C180.649,520.118,178.845,505.284,176.895,488.77Z" transform="translate(458.582 1118.891)"/>
    <path id="Path_106" data-name="Path 106" d="M149.951,473.164a208.856,208.856,0,0,1,.9-46.389c12.615.744,23.619,4.312,34.581,4.221,48.521-.393,97.028-1.839,145.544-2.9.169,13.807.343,27.614.6,43.153-12.446,2.764-25,4.734-37.527,4.644C246.622,475.535,199.2,474.516,149.951,473.164Z" transform="translate(528.209 1181.713)" fill="#1b3550"/>
    <path id="Path_107" data-name="Path 107" d="M580.732,417.221c1.347,17.669,2.695,35.338,1.772,54.548-38.545,1.5-74.816,1.48-111.086,1.389-32.854-.083-32.854-.121-32.343,27.5a27.862,27.862,0,0,1-12.474-1.589c-1.293-29.754-1.946-30.453-23.7-27.164-1.85-11.8-3.512-22.033-3.586-33.167C460.849,430.967,520.788,424.1,580.732,417.221Z" transform="translate(1421.009 1155.197)" fill="#010c2c"/>
    <path id="Path_108" data-name="Path 108" d="M349.339,479.792a308.447,308.447,0,0,1,5.33-55.254c32.959,2.911,63.936,7.853,94.986,12.44,46.744,6.9,46.767,6.8,49.388,44.233C449.637,481.056,400.23,480.9,349.339,479.792Z" transform="translate(1242.702 1175.504)" fill="#17325d"/>
    <path id="Path_109" data-name="Path 109" d="M360.884,472.65c-33.151,1.782-66.343,1.8-101.663,1.771-2.115-18.99-2.106-37.936-2.2-58.64,33.238-1.748,66.576-1.744,101.983-1.774C361,432.944,360.926,451.915,360.884,472.65Z" transform="translate(913.367 1146.273)" fill="#010c2c"/>
    <path id="Path_110" data-name="Path 110" d="M496.3,500.973c-3.933-37.645-3.955-37.543-50.7-44.444-31.05-4.587-62.027-9.529-94.913-14.162-.731-7.664.425-15.483,3.65-24.873,41.715,3.723,81.324,9.22,121.025,14.226,18.521,2.333,37.221,3.723,55.728,7.305-.429,9.986-.745,18.209-2.855,26.232-13.424-1.929-20.394,1.208-21.454,11.745-.8,7.925-2.562,15.781-3.9,23.668A51.56,51.56,0,0,1,496.3,500.973Z" transform="translate(1246.757 1155.954)" fill="#010d2c"/>
    <path id="Path_111" data-name="Path 111" d="M409.015,460.174c-2.179-28.252-2.179-28.214,30.675-28.131,36.271.091,72.541.106,110.867.332,2.334,7.709,2.608,15.241,2.946,24.412q-36,3.993-72.116,4.576C457.832,461.76,434.25,461.035,409.015,460.174Z" transform="translate(1452.737 1196.311)" fill="#163360"/>
    <path id="Path_112" data-name="Path 112" d="M389.786,450.093c.32-8.223.635-16.446,3.1-26.311,14.379-1.185,26.62-.725,38.856-.268,1.663,10.239,3.325,20.474,5.047,33.858-.274,10.639-.612,18.13-.95,25.624-13.657.23-27.309.461-42.971-1.076C390.5,470.133,390.147,460.113,389.786,450.093Z" transform="translate(1386.997 1171.318)"/>
    <path id="Path_113" data-name="Path 113" d="M310.9,443.474c-39.066-7.573-77.017-16.151-116.138-25.575,2.069-2.08,5.307-3.319,9.692-5.237,24.738,1.17,48.315,3.326,71.952,4.75,12.707.763,25.523.264,40.4.638C316.616,426.391,314.318,434.432,310.9,443.474Z" transform="translate(691.254 1142.546)" fill="#1e2e47"/>
    <path id="Path_114" data-name="Path 114" d="M407.831,430.539c2.151,10.22,2.508,20.24,2.846,31.755-8.2,2.462-16.365,3.436-26.364,4.032-.5-8.261,1.265-16.117,2.065-24.042C387.437,431.747,394.407,428.61,407.831,430.539Z" transform="translate(1367.161 1190.672)" fill="#17325d"/>
    <path id="Path_115" data-name="Path 115" d="M308.028,439.038c5.632-5.818,10.706-11.507,17.466-13.784,2.663-.895,13.09,6.014,12.894,9.053-.333,5.142-6.047,13.973-9.966,14.151C321.858,448.753,314.92,443.467,308.028,439.038Z" transform="translate(1095.324 1177.272)" fill="#20020b"/>
    <path id="Path_116" data-name="Path 116" d="M300.54,441.031c-13.625-9.51-15.265-18.907,1.1-24.5,4.664-1.6,17.731,3.417,19.065,7.26C324.575,434.982,316.093,440.929,300.54,441.031Z" transform="translate(1030.449 1152.427)" fill="#20020b"/>
    <path id="Path_117" data-name="Path 117" d="M228.849,419.972c9.418,1.012,17.891,2.632,25.491,5.72,1,.4-.818,10.209-4.289,12.3-4.545,2.741-16.872,3.84-17.457,2.7C229.488,434.651,229.018,427.685,228.849,419.972Z" transform="translate(812.853 1162.832)" fill="#20020b"/>
    <path id="Path_118" data-name="Path 118" d="M401.173,459.347c-1.553-7.823-1.215-15.313-.749-24.389,21.687-6.437,22.34-5.739,21.874,23.589C415.771,460.046,409.417,459.861,401.173,459.347Z" transform="translate(1423.555 1195.295)" fill="#18315a"/>
    <path id="Path_119" data-name="Path 119" d="M242.052,415.568c10.56-1.427,21.431-1.555,34.329-1.506C266.493,433.608,257.824,434.238,242.052,415.568Z" transform="translate(859.955 1146.406)" fill="#20020b"/>
    <path id="Path_120" data-name="Path 120" d="M50.7,234.266c14.919,4.1,31.4,8.434,47.008,14.35,35.317,13.388,70.229,27.512,105.205,41.5,2.471.989,4.129,3.371,5.191,6.346-37.864-7.271-77.824-8.506-109.736-28.9C82.353,257.338,67.333,246.042,50.7,234.266Z" transform="translate(177.298 647.416)" fill="#1e2e47"/>
    <path id="Path_121" data-name="Path 121" d="M48.088,231.323a19.085,19.085,0,0,1,9.935,7.139C53.935,237.364,51.116,234.966,48.088,231.323Z" transform="translate(167.986 639.248)"/>
    <path id="Path_122" data-name="Path 122" d="M85.048,251.749c2.1-.883,4.643-.646,7.89.823C90.925,253.49,88.207,253.18,85.048,251.749Z" transform="translate(299.84 694.508)"/>
    <path id="Path_123" data-name="Path 123" d="M588.151,713.535c-13.826.438-26.067-.023-40.34-.6-20.65-1.941-39.349-3.33-57.87-5.663-39.7-5.006-79.31-10.5-120.8-15.668-8.258-1.333-14.675-2.8-22.728-4.572-.215-119.866,1.206-239.431,2.987-360.8,19.718,11.825,39.075,25.462,63.762,42.855,14.433-15.74,29.022-31.646,43.611-47.552q5.173.448,10.345.9,21.814,23.9,43.629,47.812,5.2-.725,10.4-1.454l46.99-50.576c19.636,20.976,33.909,36.218,52.49,56.062l50.731-55.189c24.258,19.13,41.532,32.752,61.077,48.171,17.745-13.939,35.042-27.527,53.7-41.624,2.869,6.052,5.632,12.61,5.691,19.187.429,47.744.128,95.492.653,143.236.055,5.055,3.96,10.084,8.454,15.234,3.517.865,4.389,1.793,4.992,2.9-4.572,11.349-12.2,22.539-13.063,34.077-1.612,21.735.681,43.67,2.59,66.712,1.233,2.933,1.224,4.678,1.188,7.728-1.494,19.874-4.138,38.445-4.01,57,.087,12.342-5.143,18.356-21.348,19.8-61.666,7.389-121.605,14.26-183.134,22.033m-3.366-169.547c-57.646-18.7-103.943-51.508-149.764-84.906,47.42,63.031,195.115,121.547,250.5,107.423-31.036-6.909-64.192-14.286-100.741-22.517m55.239-11.723c5.6-.521,11.195-1.042,11.693-1.087-44.241-18.092-90.089-36.841-135.938-55.586C551.222,501.438,590.763,521.078,640.024,532.264Z" transform="translate(1232.178 880.403)" fill="#341826"/>
    <path id="Path_124" data-name="Path 124" d="M508.99,375.09c20.389,27.436,26.834,54.793,8.194,86.152-16.6,27.916-26.268,58.648-38.1,86.061-5.91-39.431-11.967-79.82-18-121.709C479.986,410.186,501.8,398.2,508.99,375.09Z" transform="translate(1641.342 1038.264)"/>
    <path id="Path_125" data-name="Path 125" d="M450.961,478.037c-1.8-.295-2.672-1.223-4.736-2.435,25.829-32.435,30.831-69.366,35.983-106.615,1.877-13.6,9.683-26.643,16.311-40.537,1.521-.6,1.845-.328,1.845-.328-6.436,32.314-10.839,65.032-20.088,96.783C474.959,443.156,461.791,459.84,450.961,478.037Z" transform="translate(1588.343 907.741)" fill="#0275e2"/>
    <path id="Path_126" data-name="Path 126" d="M475.9,328.978a86.9,86.9,0,0,1-8.532,3.53q-1.617-1.6-3.229-3.2,7.372-5.771,14.744-11.538,1.987,1.325,3.978,2.654C480.89,323.013,478.917,325.607,475.9,328.978Z" transform="translate(1652.244 879.173)" fill="#0275e2"/>
    <path id="Path_127" data-name="Path 127" d="M457.971,335.676c2.384-3.583,4.924-7.034,7.468-10.481l5,3.251a89.235,89.235,0,0,1-10.574,7.419C458.46,336.08,458.135,335.812,457.971,335.676Z" transform="translate(1630.247 899.784)" fill="#0275e2"/>
    <path id="Path_128" data-name="Path 128" d="M384.864,337.77s-.027.128-1.471.381a22.787,22.787,0,0,0-5.317,3.436,11,11,0,0,0-1.845-.087c-26.286-1.344-50.686-2.643-75.958-5.014-30.575-13.38-38.924-37.679-49.758-60.585-.7-21.89-1.69-43.776-1.859-65.666-.027-3.915,3.293-11.243,5.125-11.255,25.336-.17,27.428-18.1,36.252-33.658,2.74,10.394,4.828,18.315,6.906,26.2,33.809,7.642,43.917,4.1,52.96-22.849,7.984,27.983,29.744,28.282,54.769,24.933l5.8-16.755c24.295,17.409,22.824,42.021,25.8,68.649,3.238,12.448,5.106,22.166,5.6,32.71-5.6,3.519-10.825,5.591-13.839,9-14.707,16.657-28.825,33.669-43.154,50.557m-22.28-52.078H309.746c.329,15.842,9.254,24.012,22.765,24.835,10.044.612,21.618-3.5,30.488-8.151,3.723-1.956,2.215-10.722-.416-16.684M332.4,258.78c4.444,13.218,4.444,13.218,14.47,11.462-3.01-13.259-5.956-26.228-8.9-39.2q-2.8.317-5.6.638C332.369,239.65,332.369,247.616,332.4,258.78Z" transform="translate(883.514 456.069)" fill="#f9a382"/>
    <path id="Path_129" data-name="Path 129" d="M278.572,260.231c13.895-18.182,28.013-35.195,42.72-51.852,3.015-3.413,8.244-5.486,15.178-9.148,5.9-2.484,9.08-3.994,12.259-5.5-2.581,25.847-7.5,51.025-37.773,65.666-7.993,3.862-17.937,4.972-28.821,7.381C279.869,265.045,279.44,263.286,278.572,260.231Z" transform="translate(990.24 534.902)" fill="#402906"/>
    <path id="Path_130" data-name="Path 130" d="M308.432,232.021a43.678,43.678,0,0,1-11.487,5.89c-3.211-9.575-5.079-19.292-6.906-30.494,4.59-10.292,9.14-19.1,13.689-27.923C327.177,186.549,328.712,200.854,308.432,232.021Z" transform="translate(1031.149 495.397)" fill="#ed7659"/>
    <path id="Path_131" data-name="Path 131" d="M249.288,195.081c10.843,21.135,19.193,45.434,49.5,60.358.767,6.747.937,10.877,1.105,15.007a8.762,8.762,0,0,0-1.009-.019c-34.992-5.4-43.716-15.359-49.521-56.854C248.593,208.072,249.274,202.428,249.288,195.081Z" transform="translate(884.732 538.66)" fill="#402906"/>
    <path id="Path_132" data-name="Path 132" d="M406.049,184.8c-14.7,6.55-15,16.083-10.3,28.052,3.375,8.6,3.563,18.043,5.147,28.822-26.893.208-31.187-17.329-34.946-33.741-2.818-12.3.973-23.744,21.513-26.843C395.447,182.725,400.746,183.763,406.049,184.8Z" transform="translate(1299.033 499.829)" fill="#f47c5c"/>
    <path id="Path_133" data-name="Path 133" d="M384.232,214.449c27.574-.2,54.847,1.05,82.211,2.311-22.915,15.872-51.467,10.1-80.548,10.975C383.83,223.782,383.881,219.844,384.232,214.449Z" transform="translate(1366.52 592.354)" fill="#f47c5c"/>
    <path id="Path_134" data-name="Path 134" d="M390.14,187.864a143.029,143.029,0,0,1-18.256-3.847,7.383,7.383,0,0,1-1.9-2.847c4.54-.936,9.363-1.155,17.4-1.182,7.235,2.416,11.254,4.644,14.634,7.43-.635.555-1.978,1.612-1.978,1.612C397.219,188.645,394.392,188.26,390.14,187.864Z" transform="translate(1316.367 496.77)" fill="#fae6dc"/>
    <path id="Path_135" data-name="Path 135" d="M464.31,159.1c1.891,1.4,2.9,3.587,3.91,5.773a29.211,29.211,0,0,1-5.6-2.492C462.309,160.982,462.867,160.434,464.31,159.1Z" transform="translate(1646.535 438.791)"/>
    <path id="Path_136" data-name="Path 136" d="M422.646,198.985H455.56c-3.517,15.808-13.378,24.82-30.757,26.507-20.668,2-31.584-7.947-38.915-26.507Z" transform="translate(1373.087 549.495)" fill="#fefcf9"/>
    <path id="Path_137" data-name="Path 137" d="M429.223,215.287c-2.686-4.889-4.8-10.069-8.212-14.588-3.467-4.595-8.2-8.54-12.383-12.769-3.654,3.983-7.883,7.7-10.788,12.025-2.521,3.76-3.544,8.208-6.842,13.037-1.612.687-2.425.143-2.2-1.438.475-10.337.731-19.092,2.7-27.9,14.315-1.276,26.916-2.5,39.815-2.261.434,11.549.562,21.641,0,32.276C430.621,214.207,429.223,215.287,429.223,215.287Z" transform="translate(1383.336 500.581)" fill="#fae6dc"/>
    <path id="Path_138" data-name="Path 138" d="M440.377,193.891c-14.018,10.341-27.839,10.05-42.355-1.646-.886-1.11.512-2.19,2.859-2.182,14.191.846,26.03,1.684,38.28,2.85C439.564,193.242,440.377,193.891,440.377,193.891Z" transform="translate(1415.423 524.733)" fill="#fae6dc"/>
    <path id="Path_139" data-name="Path 139" d="M420.543,194.33c-14.018,10.4-27.821,9.929-41.56-2.231-.128-1.669,1.041-2.579,2.7-2.035,13.57,1.295,25.487,2.05,37.76,3.171C419.808,193.605,420.543,194.33,420.543,194.33Z" transform="translate(1348.424 524.298)" fill="#fae6dc"/>
    <path id="Path_140" data-name="Path 140" d="M381.193,205.944c-1.334-6.509-2.667-13.021-4.458-20.882-.452-1.348.891-2.405,2.987-3.02,3.987-.355,5.878-.094,7.55,1.582-1.439,7.936-2.654,14.452-4.417,21.309C382.3,205.272,381.193,205.944,381.193,205.944Z" transform="translate(1340.126 502.086)" fill="#fae6dc"/>
    <path id="Path_141" data-name="Path 141" d="M382.774,195.722c-1.927-1.389-3.266-3.236-4.988-6.112-.384-1.038.726-1.71,2.224-1.348a19.3,19.3,0,0,1,4.522,6.1S383.364,195.269,382.774,195.722Z" transform="translate(1343.916 519.459)" fill="#fae6dc"/>
    <path id="Path_142" data-name="Path 142" d="M413,190.1c-.548,2.3-1.759,4.168-4.074,6.611-1.11.566-1.923-.083-2.046-1.408a23.815,23.815,0,0,1,4.147-6.46S412.344,189.685,413,190.1Z" transform="translate(1447.983 521.347)" fill="#fae6dc"/>
    <path id="Path_143" data-name="Path 143" d="M392.66,190.6c.082,1.582-.74,2.605-3.106,3.726-1.046.366-1.781-.359-1.562-1.423a6.023,6.023,0,0,1,3.458-3.122S392.263,190.321,392.66,190.6Z" transform="translate(1380.459 523.939)" fill="#fae6dc"/>
    <path id="Path_144" data-name="Path 144" d="M267.709,98.5q-2.377-1.019-4.75-2.041a13.441,13.441,0,0,1,4.225,1.357A7,7,0,0,1,267.709,98.5Z" transform="translate(934.54 264.943)" fill="#0275e2"/>
    <path id="Path_145" data-name="Path 145" d="M396.261,231.474c-1.9-.257-3.786-.517-7.139-.717-5.476-2.171-9.5-4.4-14.931-6.973,5.517-15.105,18.4-28.75,8.363-46.51-1.2-2.126,8.418-12.18,13.227-12.289,42.492-.966,85.052-1.2,127.539-.128,16.132.4,29.351,5.988,16.178,22.683-6.559,8.314-5.28,14.547,6.18,19.95,4.855,2.292,6.924,8.623,10.318,14.464-8.043,3.908-16.142,6.464-25.811,9.31-1.58.294-1.471.328-1.58-1.129-.818-3.311-1.525-5.161-1.571-8.427,1.453-18.005-14.374-11.511-23.737-12.825-8.993-1.265-17.425.381-14.885,12.036-2.4,2.96-4,4.923-5.531,6.871.059-.011.11-.094.11-.094-12.6,1.223-25.2,2.447-39.486,3.768-1.685.1-1.562.136-1.676-1.072-3.334-4.195-6.559-7.177-9.254-11.73-7.29-11.636-30.187-13.437-37.632-4.179-1.11,1.378,2.106,5.127,2.681,8.9a47.072,47.072,0,0,0-1.489,8.212A.617.617,0,0,0,396.261,231.474Z" transform="translate(1331.361 452.817)" fill="#f9a382"/>
    <path id="Path_146" data-name="Path 146" d="M262.141,233.448c20.878-1.431,42.505-1.62,66.019-1.521C310.6,246.489,290.149,247.24,262.141,233.448Z" transform="translate(931.622 640.864)" fill="#fae6dc"/>
    <path id="Path_147" data-name="Path 147" d="M280.333,244.31c.749-7.011,3.11-14.063,6.518-22.181A79.893,79.893,0,0,1,280.333,244.31Z" transform="translate(996.522 613.73)" fill="#fae6dc"/>
    <path id="Path_148" data-name="Path 148" d="M258.023,228.318a77.883,77.883,0,0,1,18.444,12.64A77.693,77.693,0,0,1,258.023,228.318Z" transform="translate(916.931 630.907)" fill="#fae6dc"/>
    <path id="Path_149" data-name="Path 149" d="M277.343,242.7c2.042-4.617,5.719-9.348,10.788-14.592A53.231,53.231,0,0,1,277.343,242.7Z" transform="translate(985.855 630.33)" fill="#fae6dc"/>
    <path id="Path_150" data-name="Path 150" d="M262.016,225.893c-1.841-4.712-2.01-8.842-1.909-14.52,24.669-.242,49.069,1.057,75.382,2.394C316.077,230.922,290.334,230.5,262.016,225.893Z" transform="translate(924.284 583.795)" fill="#ec7b5e"/>
    <path id="Path_151" data-name="Path 151" d="M277.265,214.115c.041-.646,1.329-1.71,3.983-3.013C281.248,211.808,279.878,212.752,277.265,214.115Z" transform="translate(985.577 583.125)" fill="#ec7b5e"/>
    <path id="Path_152" data-name="Path 152" d="M104.885,152.2c-2.379,16.385-17.027,12.942-26,10.783-5.073-1.223-11.537-13.222-9.252-17.084,3.308-5.591,13.522-10.522,21.6-11.594C105.707,132.38,105.078,142.321,104.885,152.2Z" transform="translate(243.169 369.311)"/>
    <path id="Path_153" data-name="Path 153" d="M117.662,141.9c-18.02-5.482-24.842-15.577-16.035-27.8,5.11-7.09,16.031-12.24,28.468-3.485,12.341,8.684,8.345,16.748,1.7,24.971C129.158,138.848,123.367,140.377,117.662,141.9Z" transform="translate(345.332 291.412)"/>
    <path id="Path_154" data-name="Path 154" d="M355.853,125.3c10.624.653,20.878.778,28.72,4.436,2.8,1.3,2.348,12.916-1.329,16.676-4.271,4.372-13.812,7.472-20.892,7.256C347.189,153.215,344.124,141.035,355.853,125.3Z" transform="translate(1240.426 344.984)"/>
    <path id="Path_155" data-name="Path 155" d="M414.811,142.3c-1.557-8.159-4.266-16.061-1.393-22.169,1.946-4.138,12.839-8.88,17.768-7.709,6.527,1.552,15.032,8.329,15.566,13.38.644,6.071-4.517,14.294-10.4,18.473C432.643,146.912,423.005,143.835,414.811,142.3Z" transform="translate(1466.796 308.749)"/>
    <path id="Path_156" data-name="Path 156" d="M442.811,208.921a80.629,80.629,0,0,1-4.8,7.728,320.054,320.054,0,0,1-37.458-2.073c-1.786-10.639-1.914-20.731-2.348-32.28-.3-1.461-.352-1.378,1.329-1.095,15.817,1.363,29.958,2.447,44.095,3.53,0,0-.11-.034-.132-.076C443.332,192.184,443.195,199.754,442.811,208.921Z" transform="translate(1416.447 499.676)" fill="#f6a485"/>
    <path id="Path_157" data-name="Path 157" d="M331.353,458.681c-48.69,2.752-97.2,4.2-145.717,4.591-10.962.091-21.965-3.477-34.462-5.92-1.553-12.115-8.56-26.187,15.123-30.589,9.094-.011,16.941.967,26.473,1.522,4.175-.359,6.664-.291,10.195-.819,43.9-4.636,86.76-8.683,131.553-12.319C334.815,429.368,333.17,443.179,331.353,458.681Z" transform="translate(528.005 1149.437)" fill="#010d2c"/>
    <path id="Path_158" data-name="Path 158" d="M209.869,316.176c.594-4.519,1.192-7.438,1.79-10.352,13.588,22.181,9.934,45.143,4.86,67.539-3.17,13.988-11.355,27.168-16.845,40.835-7.788,19.383-15.164,38.88-25.007,64.243,0-13.32-1.229-21.845.347-30a63.409,63.409,0,0,1,9.3-23.193C206.96,391.617,213.432,355.565,209.869,316.176Z" transform="translate(617.932 846.021)" fill="#000e19"/>
    <path id="Path_159" data-name="Path 159" d="M246.741,351.363a6.442,6.442,0,0,1-1.731,4.478c-21.335-23.9-41.7-48.73-62.072-73.561L190.776,278C209.352,302.041,227.928,326.083,246.741,351.363Z" transform="translate(649.065 768.794)" fill="#000e19"/>
    <path id="Path_160" data-name="Path 160" d="M196.827,304.263c.338-.295.932,1.027.69,1.7C196.352,306.09,196.087,305.4,196.827,304.263Z" transform="translate(697.138 841.571)" fill="#1d53c5"/>
    <path id="Path_161" data-name="Path 161" d="M220.483,286.952c-9.843-.193-17.946-1.265-26.067-1.389-18.2-.283-36.417-.091-59.085-.091-10.131-20.055-13.73-43.988-8.765-72.466,6.134-35.191,26.985-41.183,62.283-39.385,8.253.419,16.977-4.648,25.4-7.373,31.274-10.114,62.927,4.685,75.35,29.834,9.2,18.62,20.545,35.4,12.122,56.054-4.96,12.157-9.679,24.386-12.643,31.88-26.03.97-46.442,1.725-68.595,2.937m-69.728-73.965c-3.549,3.677-7.1,7.355-13.273,13.743,19.809-.849,33.261-1.065,46.589-2.243,3.526-.31,6.664-3.587,9.985-5.5-3.4-2.462-6.568-6.732-10.231-7.037-9.619-.808-19.448.106-33.069,1.038m86.134-.355c.407,3.677.384,10.481,1.293,10.567,15.137,1.435,30.392,2.027,46.94,2.877C276.764,211.338,274.434,210.692,236.889,212.633Z" transform="translate(440.069 449.715)" fill="#f6a181"/>
    <path id="Path_162" data-name="Path 162" d="M150.724,229.1c-6.956-6.531-12.3-12.44-17.64-18.345,7.948-3.923,15.47-10.205,23.938-11.247a197.744,197.744,0,0,1,47.379-.276c8.071.982,15.077,7.978,22.564,12.259-4.814,5.512-8.331,12.549-14.689,16.253C193.3,238.811,172.789,238.584,150.724,229.1Z" transform="translate(471.21 546.594)" fill="#f6ccba"/>
    <path id="Path_163" data-name="Path 163" d="M131.025,260.84c-2.069-3.738-2.32-7.332-2.658-12.274,36.883-6.335,73.852-11.33,110.817-16.321q1.3,4.995,2.6,9.986C209.321,260.164,170.425,258.575,131.025,260.84Z" transform="translate(454.383 641.807)" fill="#d4d7dc"/>
    <path id="Path_164" data-name="Path 164" d="M131.934,259.436c24.76-3.405,49.4-8.034,74.332-9.748,14.812-1.019,30.086,2.552,45.15,4.059q-.226,4.043-.461,8.087c-38.225,3.994-76.456,7.985-117.019,10.409C131.71,266.926,131.824,263.181,131.934,259.436Z" transform="translate(466.935 689.717)" fill="#d4d7dc"/>
    <path id="Path_165" data-name="Path 165" d="M239.788,272.933c1.6,2.118,1.695,3.553-.1,6.218-36.686,4.908-71.486,8.582-106.45,10.888-.183-5.014-.192-8.661-.2-12.308,27.889-3.991,55.682-8.574,83.732-11.553C223.51,265.465,231.087,270.082,239.788,272.933Z" transform="translate(471.025 735.781)" fill="#d4d7dc"/>
    <path id="Path_166" data-name="Path 166" d="M145.179,320.681c1.9,4.1,1.909,7.751.48,13.452C140.776,346,137.337,355.8,133.893,365.6c-1.626-37.837-3.252-75.671-4.8-115.14,3.43.989,6.774,3.617,11.451,6.275,1.224,3.783,1.11,7.528,1.261,12.667C142.48,287.276,142.886,303.748,145.179,320.681Z" transform="translate(456.987 692.375)" fill="#3981c9"/>
    <path id="Path_167" data-name="Path 167" d="M256.647,285.8c3.321,12.916,9.249,25.816,9.4,38.762.3,24.99-2.645,50.01-4.275,75.018-.379,5.859-.635,11.738-1.366,17.575-4.6,36.848-9.322,73.689-17.685,111.164-17.932-.208-29.963-.94-43.245,9.095-8.121,6.139-28.118,1.537-44.661,1.752-4.9-11.2-7.911-22.4-10.925-33.605-.027-5.693-.055-11.387,2.133-17.609,18.311-1.567,34.4-2.6,55.4-3.953-22.1-18.477-38.691-10.537-55.294-3.885-3.458-17.669-6.915-35.334-6.728-53.679,35.75-4.365,67.855-8.053,99.96-11.738q-.788-5.391-1.571-10.786c-34.466-8.88-66.8,7.117-100.138,11.311a27.185,27.185,0,0,1-8-8.706c-.224-12.134-1.242-21.633.16-30.883.745-4.942,5.659-9.454,10.441-13.969,37.874-3.2,74-6.584,110.132-9.975q-.377-3.2-.758-6.4c-37.76-14.309-74.067,1.824-112.827,5.656-3.919-14.1-5.947-27.787-7.97-41.469a34.827,34.827,0,0,1,8.171-7.373c16.649-2.042,30.712-2.462,44.469-4.38C206.628,294.217,231.6,289.823,256.647,285.8Z" transform="translate(456.049 790.451)"/>
    <path id="Path_168" data-name="Path 168" d="M130.086,313.508c3.723-11.5,7.162-21.3,12.214-31.8,36.408-4.361,71.207-8.034,107.953-11.866a213.364,213.364,0,0,1,.562,51.584c-42.533-8.389-80.046,6.067-118.769,10.307C131.3,326.224,130.552,320.711,130.086,313.508Z" transform="translate(460.515 746.163)"/>
    <path id="Path_169" data-name="Path 169" d="M131.1,444.783c1.283-15.687,2.567-31.374,6.518-48.193,21.5-3.281,40.3-5.607,59.167-7.532,17.411-1.778,35.316-4.013,43.044,15.857-1.311,7.887-2.722,14.317-5.961,20.991C198.4,432.362,164.753,438.572,131.1,444.783Z" transform="translate(464.147 1073.937)"/>
    <path id="Path_170" data-name="Path 170" d="M132.659,425.349c-.438-7.724-.877-15.445.311-25.545,4.828-8.427,8.034-14.471,13.355-20.335,18.494-2.069,34.85-4.44,51.261-6.531a251.837,251.837,0,0,1,35.092-2.375c1.58,12.731,2.412,24.084,1.85,36.037a145.016,145.016,0,0,1-13.291,7.532c-2.133,1.019-3.024,2.141-5.851,3.277-10.976-.106-20.019-.227-29.186-1.786a172.785,172.785,0,0,0-8.7-16.125c-6.152,10.643-10.414,18.02-16.58,25.473C150.234,425.145,141.447,425.247,132.659,425.349Z" transform="translate(468.069 1025.666)"/>
    <path id="Path_171" data-name="Path 171" d="M222.379,387.095a57.2,57.2,0,0,1,12.716-6.766,28.055,28.055,0,0,1,6.2,2.454c-.274,10.22-.548,20.444-1.649,33.22a91.691,91.691,0,0,1-3.942,8.582c-7.623-18.409-25.528-16.174-42.939-14.4-18.864,1.925-37.668,4.251-58.45,6.392-2.078-5.12-2.2-10.228-2.037-16.854,9.067-1.62,17.854-1.722,30.278-1.861a183.883,183.883,0,0,0,23.664-7.94c9.044.117,18.087.238,30.068-.023C220.671,389.058,221.717,388.246,222.379,387.095Z" transform="translate(468.168 1052.805)" fill="#d4d7dc"/>
    <path id="Path_172" data-name="Path 172" d="M132.075,416.6c34.973-6.992,68.618-13.2,104.029-18.22.612,7.679-.534,14.166-1.685,20.652-33.676,3.866-67.352,7.732-103.02,11.587C129.86,426.2,130.3,421.787,132.075,416.6Z" transform="translate(461.851 1102.902)" fill="#d4d7dc"/>
    <path id="Path_173" data-name="Path 173" d="M130.584,296.512c38.7-5.58,76.209-20.036,118.18-10.084,1.695,2.122,1.74,3.545,1.859,6.029-24.98,5.089-49.95,9.484-75.1,12.991-13.757,1.918-27.821,2.337-43.574,3.281C130.283,305,130.447,301.428,130.584,296.512Z" transform="translate(462.004 782.727)" fill="#d4d7dc"/>
    <path id="Path_174" data-name="Path 174" d="M130.833,331.589c33.032-5.452,65.361-21.448,99.827-12.568q.781,5.391,1.571,10.786c-32.1,3.685-64.21,7.373-98.343,10.888C131.619,337.966,131.381,335.406,130.833,331.589Z" transform="translate(463.18 875.343)" fill="#d0d2d8"/>
    <path id="Path_175" data-name="Path 175" d="M144.579,451.662a180.012,180.012,0,0,1-11.062,18.862c-1.466-40.948-1.48-82.625-1.384-126.051,3.129,9.45,6.143,20.652,11.117,33.239,2.019,4.157,2.083,6.924.228,10.084-3.27,16.993-4.618,33.6-5.97,50.209,2.708-.072,5.412-.147,7.952,1.167C145.054,444.259,144.816,447.959,144.579,451.662Z" transform="translate(467.695 953.292)" fill="#3981c9"/>
    <path id="Path_176" data-name="Path 176" d="M132.649,343.666c16.475-7.57,33.069-15.51,55.166,2.968-21,1.352-37.088,2.386-54.235,2.533A17.626,17.626,0,0,1,132.649,343.666Z" transform="translate(469.659 927.818)" fill="#bdc1cc"/>
    <path id="Path_177" data-name="Path 177" d="M128.673,292.413c3.015,12.4,5.042,26.081,8.852,41.447a20.576,20.576,0,0,1,1.818,9.269c-3.037,4.7-7.952,9.216-8.7,14.158-1.4,9.25-.384,18.749-.635,29.849C129.061,357.124,128.371,325.41,128.673,292.413Z" transform="translate(455.219 808.799)" fill="#3981c9"/>
    <path id="Path_178" data-name="Path 178" d="M141.4,414.76q-4.063.108-8.121.219c1.352-16.608,2.7-33.216,7.961-50,31.3-4.187,58.693-8.2,86.084-12.21,1.854,10.749,3.709,21.5,5.691,35.289-2.859,7.158-5.842,11.266-10.77,15.124C194,406.877,167.7,410.818,141.4,414.76Z" transform="translate(471.92 976.319)"/>
    <path id="Path_179" data-name="Path 179" d="M221.017,359.03c-27.035,5.135-54.426,9.144-83.809,12.942-2.055-2.983-2.119-5.75-2.256-9.907,14.584-1.6,34.581,3,42.7-3.137,13.282-10.035,25.313-9.3,41.487-8.212C220.926,353.284,220.794,355.594,221.017,359.03Z" transform="translate(477.875 968.939)" fill="#bdc1cc"/>
    <path id="Path_180" data-name="Path 180" d="M153.187,376.263c2.983-4.112,5.965-8.219,9.226-13.7,2.279,21.444,4.289,44.259,5.207,68.305-2.466.5-3.846-.227-5.892-1.827-1.5-12.221-2.329-23.574-4.01-37.615C155.644,384.58,154.416,380.42,153.187,376.263Z" transform="translate(542.928 1003.494)" fill="#6da1d6"/>
    <path id="Path_181" data-name="Path 181" d="M153.537,442.749c-.206-7.585.941-14.071,2.156-22,1.475-7.864,2.887-14.294,4.2-22.181a25.682,25.682,0,0,1,3.832-8.34c-1.2,28.418-3.216,57.681-6.271,88.191C155.9,467.724,155.4,455.786,153.537,442.749Z" transform="translate(544.09 1080.282)" fill="#3981c9"/>
    <path id="Path_182" data-name="Path 182" d="M311.6,363.01c31.37,5.58,46.707,20.138,46.42,42.319-.3,22.966-16.078,38.936-40.2,40.7-33,2.409-54.394-8.978-59.8-31.831-5.435-22.985,8.852-42.666,36.134-49.288C299.146,363.693,304.54,363.6,311.6,363.01Z" transform="translate(912.832 1004.737)" fill="#1d567e"/>
    <path id="Path_183" data-name="Path 183" d="M517.252,440.857c34.854,7.8,68.01,15.181,99.046,22.09-55.39,14.124-203.085-44.392-250.5-107.423C411.615,388.922,457.911,421.726,517.252,440.857Z" transform="translate(1301.405 983.96)" fill="#20020b"/>
    <path id="Path_184" data-name="Path 184" d="M505.934,416.294c-47.475-10.911-87.016-30.551-122.459-56.4,45.849,18.745,91.7,37.494,135.938,55.586C518.915,415.528,513.315,416.049,505.934,416.294Z" transform="translate(1364.482 996.097)" fill="#20020b"/>
    <path id="Path_185" data-name="Path 185" d="M316.617,197.352c.881,5.814,2.389,14.581-1.334,16.536-8.87,4.648-20.444,8.763-30.488,8.151-13.511-.823-22.436-8.993-22.765-24.835C280.566,197.205,297.717,197.205,316.617,197.352Z" transform="translate(931.23 544.555)" fill="#fdf4ef"/>
    <path id="Path_186" data-name="Path 186" d="M267,208.865c-.018-9.563-.018-17.529-.018-25.5q2.8-.317,5.6-.638c2.946,12.969,5.892,25.937,8.9,39.2C271.46,223.683,271.46,223.683,267,208.865Z" transform="translate(948.9 504.383)" fill="#f47c5c"/>
    <path id="Path_187" data-name="Path 187" d="M425.988,214.6a41.645,41.645,0,0,1-4.042,4.338c-12.492-.06-24.409-.816-37.979-2.111-2.667-2.454-3.677-4.368-5.632-6.981.265-7.219,1.48-13.735,2.919-21.671.224-1.419.151-1.329,1.617-1.82,16.137-11.515,30.159-3.976,44.286.525,0,0-.123-.034-.151-.083C426.719,195.5,426.463,204.26,425.988,214.6Z" transform="translate(1346.145 497.537)" fill="#f8a685"/>
    <path id="Path_188" data-name="Path 188" d="M399.963,187.3c-3.353-10.654,5.079-12.3,14.072-11.036,9.363,1.314,25.19-5.18,22.344,12.153C422.869,188.541,411.414,187.922,399.963,187.3Z" transform="translate(1420.622 485.431)"/>
    <path id="Path_189" data-name="Path 189" d="M382.234,189.61c-1.215-2.654-4.431-6.4-3.321-7.781,7.445-9.257,30.342-7.456,35.718,4.081A297.848,297.848,0,0,1,382.234,189.61Z" transform="translate(1347.389 485.468)"/>
    <path id="Path_190" data-name="Path 190" d="M379.969,182.23c10.629-1.865,20.613-2.605,32.516-3.251a40.229,40.229,0,0,1,11.688,10.258c-14.013-3.292-28.035-10.832-44.227.71C378.722,188.093,379.023,185.722,379.969,182.23Z" transform="translate(1349.015 493.97)" fill="#fae6dc"/>
    <path id="Path_191" data-name="Path 191" d="M402.209,179.269a271.323,271.323,0,0,1,36.563,1.529,16.338,16.338,0,0,1,3.631,7.687c-14.027.374-28.168-.71-44.04-2.061C398.213,184.192,399.807,182.229,402.209,179.269Z" transform="translate(1417.562 494.465)" fill="#fae6dc"/>
    <path id="Path_192" data-name="Path 192" d="M142.439,176.912c11.684-.581,21.513-1.5,31.132-.687,3.663.306,6.833,4.576,10.231,7.037-3.321,1.914-6.458,5.191-9.985,5.5-13.328,1.178-26.779,1.393-46.589,2.243C133.4,184.617,136.953,180.94,142.439,176.912Z" transform="translate(450.323 485.44)" fill="#373f5d"/>
    <path id="Path_193" data-name="Path 193" d="M150.422,176.51c35.581-1.578,37.91-.932,46.269,13.807-16.548-.849-31.8-1.442-46.94-2.877C148.842,187.354,148.865,180.55,150.422,176.51Z" transform="translate(528.501 485.475)" fill="#1e355c"/>
    <path id="Path_194" data-name="Path 194" d="M132.663,322.175c-1.754-2.718-1.768-5.244-1.667-9.035,36.974-5.516,73.281-21.648,111.041-7.339q.377,3.2.758,6.4C206.666,315.591,170.537,318.977,132.663,322.175Z" transform="translate(463.642 829.942)" fill="#d0d2d8"/>
    <path id="Path_195" data-name="Path 195" d="M216.259,366.124c3.174,4.41,4.4,8.57,5.728,14.037-11.35,2.548-22.833,3.613-34.243,5.063-16.411,2.092-32.767,4.463-51.261,6.531-1.882-3.885-1.644-7.585-1.238-12.67C161.714,373.758,188.014,369.816,216.259,366.124Z" transform="translate(477.91 1013.38)" fill="#cdcdd0"/>
    <path id="Path_196" data-name="Path 196" d="M160.928,394.343c-6.55,4.074-13.227,6.709-21.641,9.307,2.53-7.411,6.792-14.789,12.944-25.432A172.785,172.785,0,0,1,160.928,394.343Z" transform="translate(493.34 1046.946)" fill="#fae6dc"/>
    <path id="Path_197" data-name="Path 197" d="M153.976,382.094c.58,1.253-.466,2.065-2.909,2.9C150.952,384.235,151.843,383.114,153.976,382.094Z" transform="translate(535.329 1057.703)" fill="#fae6dc"/>
  </g>
</svg>
