<svg xmlns="http://www.w3.org/2000/svg" xmlns:xlink="http://www.w3.org/1999/xlink" width="585" height="576" viewBox="0 0 585 576">
  <defs>
    <clipPath id="clip-path">
      <ellipse id="Ellipse_1" data-name="Ellipse 1" cx="292.5" cy="288" rx="292.5" ry="288" transform="translate(10.024 30.079)" fill="none"/>
    </clipPath>
  </defs>
  <g id="pngwing.com" transform="translate(-10.024 -30.079)">
    <g id="Mask_Group_1" data-name="Mask Group 1" clip-path="url(#clip-path)">
      <path id="Path_1" data-name="Path 1" d="M269,606H1.024V1.079H605.866q0,302.381.006,604.921c-88.977,0-177.961,0-267.708-.358.123-2.393,1.782-4.427,1.785-6.464q.2-112.971.112-225.94v-6.417h73.414c3.682-28.523,7.3-56.524,10.988-85.122H340.436c0-21.35-.927-42.2.264-62.922,1.157-20.127,9.926-28.965,29.239-31.954,8.006-1.239,16.28-.882,24.435-.992,10.789-.145,21.582-.036,32.536-.036V109.426c-10.667-.787-20.933-1.877-31.225-2.234-20.616-.717-41.281-2.343-61.768,1.811-21.114,4.28-39.6,13.4-54.3,29.455-17.682,19.316-25.586,42.719-26.723,68.3-1.028,23.119-.6,46.3-.807,69.457-.016,1.753,0,3.506,0,5.757H178.877v84.992h73.206v9.557q0,110.222-.082,220.441c-.007,4.423,1.221,6.277,5.8,6.124a58.83,58.83,0,0,1,10.225,1.029C268.436,604.177,268.681,605.346,269,606Z" fill="#fff"/>
      <path id="Path_2" data-name="Path 2" d="M269.469,606c-.788-.654-1.033-1.823-1.438-1.881a58.83,58.83,0,0,0-10.225-1.029c-4.584.153-5.812-1.7-5.8-6.124q.171-110.22.082-220.441v-9.557H178.877V281.976h73.205c0-2.251-.014-4,0-5.757.209-23.155-.221-46.338.807-69.457,1.137-25.585,9.041-48.988,26.723-68.3,14.7-16.056,33.189-25.175,54.3-29.455,20.487-4.154,41.152-2.528,61.768-1.811,10.292.357,20.558,1.447,31.225,2.234v76.369c-10.954,0-21.747-.109-32.536.036-8.155.11-16.429-.247-24.435.992-19.313,2.989-28.082,11.827-29.239,31.954-1.191,20.725-.264,41.572-.264,62.922h84.027c-3.692,28.6-7.306,56.6-10.988,85.122H340.061v6.417q0,112.969-.112,225.94c0,2.037-1.662,4.071-2.249,6.464C315.312,606,292.625,606,269.469,606Z"/>
    </g>
  </g>
</svg>
